M72
M48
T1F00S00C0.02000
T2F00S00C0.03200
T3F00S00C0.03600
T4F00S00C0.04000
T5F00S00C0.04400
T6F00S00C0.04800
T7F00S00C0.06400
T8F00S00C0.09000
T9F00S00C0.12500
%
T01
X0118173Y0136827
X01255Y01435
X01365Y01445
X0134Y01545
X0163Y01445
X01665Y01375
X01795Y0137
X0194Y0134
X0203
X0207Y0131
X01985Y0128
X02025Y01455
X01945Y01505
X02315Y0131
X0235Y01225
X0228
X0269Y0132
Y015
X0274Y01505
X0265701Y0155701
X0258Y01515
X02955Y0144
X0305Y0156
Y0129
X02895Y0127
X0322Y01375
X03605Y015
X03835Y0152
X03885Y01518
X0389Y01355
Y01285
X03935Y01215
X0396Y0139
X04085Y0138
X04185Y0137
X0423Y01335
X0427Y0143
X04275Y015
X0439Y01542
X04135Y01555
X0407
X0414Y0125
X04315Y01245
X04565Y0132
X0453Y01365
X04545Y0187
X04605Y0198
X04665Y0177
X04215Y0188
X04242Y02063
X04315Y02065
X04375Y0209
X0405Y01957
X04005Y0192
X04015Y0174
X03935
X03785
X03815Y01614
X03605Y016
X0356Y01655
Y01755
X03485Y01835
X0351917Y01965
X03615Y0203
X0356Y02085
Y02172
X03564Y0224
X03635Y0222
X038
X0382Y0227
X03865Y02225
X03955
X038Y02105
Y02045
X03835Y0201
X0376Y02355
X0348
X03435Y02375
X0339
X03425Y02475
X03645Y02545
X0395Y025
X03204Y02375
X0316Y0238
X0317Y0234
X0335Y0207
X0337409Y0202909
X0334Y0198
X0335Y018
X0328
X03245Y01885
X04085Y0176
X0419Y0162
X03Y01655
X0291Y0157
X0285
X0272Y01685
X02745Y01775
X02795
X0288Y01835
X029Y01875
Y01915
X0302Y01865
X0307Y01855
X0312Y0189
X03095Y02095
X03115Y02155
Y022
X03105Y02265
X03055Y02425
X02925Y02475
X028Y0244
X0273Y0241
X0272Y0247
X02765Y0251
X0279Y026
X02725Y0263
X0258Y02605
X0251
X0238Y0263
X0226Y02685
X02185
X020937Y0266
X0200323Y0266677
X02005Y02605
X0197177Y0251323
X01865Y02525
X0179Y02495
X0173
X01668Y02475
X01615Y0254
Y0261
Y0265
X0176Y02615
X0177Y02385
X0173
X01805Y02365
X01735Y0227
X0166Y02125
X01725Y0203
X01755Y0197
X018Y01905
X01805Y01815
X0181Y01735
X0166Y0171
X01675Y0167
X0164Y01605
X0166Y0177
X01635Y0188
X01945Y01875
Y01795
X02045
X02055Y0174
X0205Y01875
X0215Y01905
X0225Y01945
X0224Y0199
X02247Y02072
X0224Y0213
X02235Y022
X02185Y02165
X02265Y02255
X02255Y02295
X02285Y02334
X0221Y0232
X02255Y02418
X0238Y02436
X02345Y02365
X0245Y02364
X0244Y02214
X02385Y02195
X02345Y02215
X02305Y0224
X0233Y0204
X0236Y0207
X02425Y0202248
X02405Y0196
X02365Y0194
X02335Y01975
X0233Y0182
X02375Y01835
X0242
X02545Y01865
X0255Y0175
X0255252Y0170752
X026Y01705
X0262Y018
X0265Y0193
X02625Y02045
X0258
X0272Y0205
X02785Y02035
X0276Y02195
X0272Y02165
X0263
X02785Y0232
X02855Y0235
X0291Y02225
X0296Y0208
X0253Y01577
X0244
X02295Y0168
X01945Y0169
X0195Y02125
X0204787Y0212713
X02055Y02255
X0209Y02285
X02115Y02448
X01945Y0239
X018Y02095
X0224Y0259
X0156Y0233
X01175Y0243
X0136Y0186
X01425Y01725
X0134Y0163
X01525Y01585
T02
X0386Y0207
X0396
T03
X04025Y026
X04125
X04225
X04325
X04425
X04525
T04
X01425Y01325
X01525
X02135Y0141
X02235
Y0151
X02135
X0315Y0155
Y0145
X0325
Y0155
X0339
Y0145
X0349
Y0155
X03975Y01135
X04075
X04175
X04275
X04375
X04475
X0438874Y0172157
X0431Y0172158
Y0182
X0438874
X04185Y02385
X0389Y026
X0379
Y02515
X03575Y025
X03475
X03375
Y026
X03475
X03575
X03275
Y025
X03175
Y026
X0315Y0175
Y0165
X0325
Y0175
X0339
Y0165
X0349
Y0175
X03025Y023
X02925
X02875Y025
Y026
X02975
Y025
X03075
Y026
X02235Y0181
X02135
Y0171
X02235
Y0161
X02135
T05
X01375Y01135
X01475
X01575
X01675
X01825
X01925
X02025
X02125
X02275
X02375
X02475
X02575
X02675
X02775
X02875
X02975
X03125
X03225
X03325
X03425
X03525
X03625
X03725
X03825
X0188976Y0236335
X0154Y026
X0144
X0134
T06
X04735Y02165
Y02315
T07
X0188976Y0153657
X0435Y0224
X0459
X0447Y0244
T08
X0449543Y0153378
Y020078
T09
X0115Y0115
X0475
Y026
X0115
M30
