%FSLAX25Y25*%
%MOIN*%
G70*
G01*
G75*
%ADD10C,0.00700*%
%ADD11C,0.06000*%
%ADD12O,0.04000X0.02700*%
%ADD13R,0.07874X0.06299*%
%ADD14R,0.06500X0.05500*%
%ADD15R,0.05000X0.05000*%
%ADD16R,0.05500X0.06500*%
%ADD17R,0.04000X0.02700*%
%ADD18O,0.07000X0.10000*%
%ADD19O,0.07000X0.09000*%
%ADD20O,0.02400X0.08000*%
%ADD21R,0.02400X0.08000*%
%ADD22R,0.03600X0.03600*%
%ADD23R,0.05000X0.03600*%
%ADD24R,0.07000X0.01500*%
%ADD25O,0.07000X0.01500*%
%ADD26O,0.07480X0.01969*%
%ADD27O,0.01969X0.07480*%
%ADD28O,0.01969X0.07000*%
%ADD29R,0.01969X0.07480*%
%ADD30O,0.05118X0.01500*%
%ADD31O,0.05118X0.01500*%
%ADD32R,0.05118X0.01500*%
%ADD33R,0.05000X0.03000*%
%ADD34R,0.05906X0.02756*%
%ADD35R,0.11024X0.05906*%
%ADD36R,0.05906X0.03937*%
%ADD37R,0.05906X0.03937*%
%ADD38C,0.01000*%
%ADD39C,0.02000*%
%ADD40C,0.00600*%
%ADD41O,0.10000X0.12000*%
%ADD42C,0.06300*%
%ADD43C,0.06200*%
%ADD44O,0.06500X0.05500*%
%ADD45O,0.06500X0.05000*%
%ADD46O,0.05500X0.06400*%
%ADD47R,0.05500X0.06400*%
%ADD48R,0.06200X0.07200*%
%ADD49O,0.06200X0.07200*%
%ADD50O,0.06000X0.07000*%
%ADD51R,0.06000X0.07000*%
%ADD52O,0.05500X0.06800*%
%ADD53O,0.06400X0.05000*%
%ADD54O,0.06800X0.05000*%
%ADD55R,0.05500X0.06800*%
%ADD56O,0.06800X0.05500*%
%ADD57R,0.06800X0.05500*%
%ADD58O,0.06400X0.05500*%
%ADD59R,0.06000X0.06000*%
%ADD60O,0.08000X0.06000*%
%ADD61O,0.06000X0.07400*%
%ADD62R,0.06000X0.07400*%
%ADD63C,0.23500*%
%ADD64R,0.10000X0.08000*%
%ADD65O,0.10000X0.08000*%
%ADD66C,0.12000*%
%ADD67C,0.04400*%
%ADD68C,0.03200*%
%ADD69C,0.03000*%
D10*
X237450Y236500D02*
X237296Y237442D01*
X236849Y238285D01*
X236156Y238941D01*
X235290Y239342D01*
X234341Y239446D01*
X233409Y239241D01*
X232591Y238749D01*
X231973Y238022D01*
X231619Y237136D01*
X231567Y236183D01*
X234183Y233567D02*
X235167Y233626D01*
X236076Y234007D01*
X236810Y234665D01*
X237285Y235528D01*
X237450Y236500D01*
X227350Y239502D02*
X227942Y240146D01*
X228320Y240935D01*
X228450Y241800D01*
X230692Y235308D02*
X230150Y234000D01*
X230692Y235308D02*
X230150Y234000D01*
X228450Y229500D02*
X228320Y230365D01*
X227942Y231154D01*
X227350Y231798D01*
X240669Y217500D02*
X241248Y218426D01*
X241450Y219500D01*
X241265Y220529D01*
X240733Y221428D01*
X239920Y222086D01*
X238930Y222419D01*
X237885Y222385D01*
X236918Y221990D01*
X236149Y221282D01*
X235675Y220350D01*
X230150Y226929D02*
X229225Y226660D01*
X228436Y226107D01*
X227867Y225330D01*
X227579Y224410D01*
X227602Y223447D01*
X227935Y222543D01*
X228542Y221794D01*
X229357Y221280D01*
X230294Y221057D01*
X231254Y221148D01*
X232133Y221543D01*
X232837Y222200D01*
X233293Y223049D01*
X233450Y224000D01*
X233432Y224328D02*
X233850Y225500D01*
X233432Y224328D02*
X233850Y225500D01*
X233450Y224000D02*
X233432Y224328D01*
X228450Y241800D02*
X228285Y242773D01*
X227808Y243637D01*
X227072Y244296D01*
X226161Y244675D01*
X225175Y244732D01*
X224226Y244461D01*
X223420Y243892D01*
X222846Y243088D01*
X222570Y242141D01*
X222621Y241155D01*
X222995Y240241D01*
X223650Y239502D01*
X220346Y240000D02*
X220240Y241008D01*
X219927Y241973D01*
X219420Y242851D01*
X218741Y243604D01*
X217921Y244200D01*
X216995Y244613D01*
X216003Y244823D01*
X214989D01*
X213997Y244613D01*
X213071Y244200D01*
X212251Y243604D01*
X211572Y242851D01*
X211065Y241973D01*
X210752Y241008D01*
X210646Y240000D01*
Y237000D02*
X210752Y235992D01*
X211065Y235027D01*
X211572Y234149D01*
X212251Y233396D01*
X213071Y232800D01*
X213997Y232387D01*
X214989Y232177D01*
X216003D01*
X216995Y232387D01*
X217921Y232800D01*
X218741Y233396D01*
X219420Y234149D01*
X219927Y235027D01*
X220240Y235992D01*
X220346Y237000D01*
X223650Y231798D02*
X222995Y231059D01*
X222621Y230145D01*
X222570Y229159D01*
X222846Y228212D01*
X223420Y227408D01*
X224226Y226839D01*
X225175Y226568D01*
X226161Y226625D01*
X227072Y227004D01*
X227808Y227662D01*
X228285Y228527D01*
X228450Y229500D01*
X220346Y223500D02*
X220240Y224508D01*
X219927Y225473D01*
X219420Y226351D01*
X218741Y227104D01*
X217921Y227700D01*
X216995Y228113D01*
X216003Y228323D01*
X214989D01*
X213997Y228113D01*
X213071Y227700D01*
X212251Y227104D01*
X211572Y226351D01*
X211065Y225473D01*
X210752Y224508D01*
X210646Y223500D01*
X226429Y220350D02*
X226159Y221277D01*
X225605Y222067D01*
X224825Y222636D01*
X223903Y222922D01*
X222937Y222896D01*
X222033Y222559D01*
X221285Y221948D01*
X220775Y221129D01*
X220556Y220188D01*
X220653Y219228D01*
X221055Y218350D01*
X220798D02*
X219751Y219172D01*
X220195Y220298D01*
X220346Y221500D01*
X208350Y225500D02*
X208129Y226601D01*
X207500Y227530D01*
Y223470D02*
X208129Y224399D01*
X208350Y225500D01*
X210646Y221500D02*
X210737Y220565D01*
X211006Y219666D01*
X211444Y218835D01*
X212034Y218104D01*
X212753Y217500D01*
X362350Y218500D02*
X361808Y219808D01*
X362350Y218500D02*
X361808Y219808D01*
X359485Y222131D02*
X358177Y222673D01*
X359485Y222131D02*
X358177Y222673D01*
X358650Y211000D02*
X359192Y209692D01*
X358650Y211000D02*
X359192Y209692D01*
X362164Y206719D02*
X363472Y206178D01*
X362164Y206719D02*
X363472Y206178D01*
X354267Y194717D02*
X354713Y195559D01*
X354867Y196500D01*
X354693Y197499D01*
X354191Y198379D01*
X353421Y199038D01*
X352473Y199397D01*
X351460Y199414D01*
X350500Y199087D01*
X257718Y172370D02*
X257166Y172997D01*
X257747Y173925D01*
X257950Y175000D01*
X257770Y176014D01*
X257254Y176904D01*
X256462Y177562D01*
X255493Y177909D01*
X254464Y177901D01*
X253500Y177540D01*
X258300Y179000D02*
X258800Y177796D01*
X258300Y179000D02*
X258798Y177798D01*
X261566Y168000D02*
X262305Y168659D01*
X262784Y169524D01*
X262950Y170500D01*
X262770Y171513D01*
X262254Y172404D01*
X261462Y173062D01*
X260493Y173408D01*
X259464Y173401D01*
X258500Y173040D01*
X257718Y172370D01*
X262796Y173800D02*
X264000Y173300D01*
X262798Y173798D02*
X264000Y173300D01*
X258798Y196202D02*
X258300Y195000D01*
X258800Y196204D02*
X258300Y195000D01*
X255093Y205000D02*
X255086Y204042D01*
X255386Y203133D01*
X255961Y202368D01*
X256752Y201827D01*
X257674Y201568D01*
X258630Y201618D01*
X259520Y201972D01*
X260250Y202592D01*
X262500Y199200D02*
X261296Y198700D01*
X262500Y199200D02*
X261298Y198702D01*
X260250Y202592D02*
X261036Y201939D01*
X261999Y201593D01*
X263021Y201596D01*
X263981Y201948D01*
X264763Y202607D01*
X265273Y203493D01*
X265450Y204500D01*
X265407Y205000D01*
X274950Y168500D02*
X274790Y169459D01*
X274326Y170314D01*
X273610Y170972D01*
X272719Y171361D01*
X271749Y171439D01*
X270807Y171198D01*
X269994Y170663D01*
X269400Y169894D01*
X269088Y168973D01*
X269093Y168000D01*
X274907D02*
X274950Y168500D01*
X282500Y173300D02*
X283702Y173798D01*
X282500Y173300D02*
X283704Y173800D01*
X286200Y176296D02*
X286700Y177500D01*
X286202Y176298D02*
X286700Y177500D01*
X290500Y190407D02*
X289478Y190403D01*
X288519Y190051D01*
X287737Y189392D01*
X287227Y188507D01*
X287050Y187500D01*
X287227Y186493D01*
X287737Y185608D01*
X288519Y184949D01*
X289478Y184597D01*
X290500Y184593D01*
X269050Y205000D02*
X269228Y203991D01*
X269740Y203104D01*
X270525Y202445D01*
X271488Y202095D01*
X272512D01*
X273475Y202445D01*
X274260Y203104D01*
X274772Y203991D01*
X274950Y205000D01*
X283702Y198702D02*
X282500Y199200D01*
X286700Y195000D02*
X286200Y196204D01*
X286700Y195000D02*
X286202Y196202D01*
X283704Y198700D02*
X282500Y199200D01*
X405500Y151350D02*
X404192Y150808D01*
X405500Y151350D02*
X404192Y150808D01*
X405593Y175500D02*
X405905Y174597D01*
X406490Y173841D01*
X407286Y173311D01*
X408209Y173064D01*
X409163Y173126D01*
X410047Y173488D01*
X410769Y174115D01*
X414150Y165000D02*
X414692Y163692D01*
X414150Y165000D02*
X414692Y163692D01*
X235800Y239148D02*
Y246150D01*
X235200Y239366D02*
Y246150D01*
X235041Y239400D02*
X246000D01*
X234600Y239448D02*
Y246150D01*
X234000Y239407D02*
Y246150D01*
X233400Y239237D02*
Y246150D01*
X237000Y238066D02*
Y246150D01*
X236400Y238757D02*
Y246150D01*
X236347Y238800D02*
X246000D01*
X232800Y238911D02*
Y246150D01*
X232200Y238347D02*
Y246150D01*
X227837Y243600D02*
X246000D01*
X227215Y244200D02*
X246000D01*
X228195Y243000D02*
X246000D01*
X228388Y242400D02*
X246000D01*
X228450Y241800D02*
X246000D01*
X228388Y241200D02*
X246000D01*
X228195Y240600D02*
X246000D01*
X227837Y240000D02*
X246000D01*
X227350Y239400D02*
X233959D01*
X237237Y237600D02*
X246000D01*
X236911Y238200D02*
X246000D01*
X237407Y237000D02*
X246000D01*
X237448Y236400D02*
X246000D01*
X237366Y235800D02*
X246000D01*
X237148Y235200D02*
X246000D01*
X236757Y234600D02*
X246000D01*
X236066Y234000D02*
X246000D01*
X234016Y233400D02*
X246000D01*
X233850Y233234D02*
X234183Y233567D01*
X233850Y232800D02*
X246000D01*
X233850Y232200D02*
X246000D01*
X233850Y231600D02*
X246000D01*
X227350Y238800D02*
X232653D01*
X227350Y238200D02*
X232089D01*
X233850Y231000D02*
X246000D01*
X233850Y230400D02*
X246000D01*
X233850Y229800D02*
X246000D01*
X233850Y229200D02*
X246000D01*
X233850Y228600D02*
X246000D01*
X231600Y237041D02*
Y246150D01*
X231000Y235616D02*
Y246150D01*
X227350Y237600D02*
X231763D01*
X228000Y243366D02*
Y246150D01*
X227400Y244057D02*
Y246150D01*
X230400Y234929D02*
Y246150D01*
X228000Y231066D02*
Y240234D01*
X230692Y235308D02*
X231567Y236183D01*
X227400Y231757D02*
Y239543D01*
X227350Y235400D02*
Y239502D01*
X226800Y244448D02*
Y246150D01*
X226200Y244666D02*
Y246150D01*
X225600Y244748D02*
Y246150D01*
X225000Y244707D02*
Y246150D01*
X224400Y244537D02*
Y246150D01*
X227350Y237000D02*
X231593D01*
X223800Y244211D02*
Y246150D01*
X227350Y236400D02*
X231552D01*
X223200Y243647D02*
Y246150D01*
X223650Y235400D02*
Y239502D01*
X227350Y235800D02*
X231184D01*
X227350Y234400D02*
Y235400D01*
X227572Y231600D02*
X230150D01*
X228040Y231000D02*
X230150D01*
X228309Y230400D02*
X230150D01*
X228435Y229800D02*
X230150D01*
X228435Y229200D02*
X230150D01*
X228309Y228600D02*
X230150D01*
X227350Y235200D02*
X230592D01*
X227350Y234600D02*
X230250D01*
X227350Y234000D02*
X230150D01*
X223650Y234400D02*
Y235400D01*
X227350Y233400D02*
X230150D01*
X227350Y232800D02*
X230150D01*
X227350Y232200D02*
X230150D01*
X227350Y231798D02*
Y234400D01*
X223650Y231798D02*
Y234400D01*
X246000Y219500D02*
Y246150D01*
X245400Y218900D02*
Y246150D01*
X244800Y218300D02*
Y246150D01*
X241200Y220689D02*
Y246150D01*
X240600Y221572D02*
Y246150D01*
X240000Y222040D02*
Y246150D01*
X244200Y217700D02*
Y246150D01*
X243600Y217500D02*
Y246150D01*
X243000Y217500D02*
Y246150D01*
X242400Y217500D02*
Y246150D01*
X241800Y217500D02*
Y246150D01*
X233850Y228000D02*
X246000D01*
X233850Y227400D02*
X246000D01*
X233850Y226800D02*
X246000D01*
X239400Y222309D02*
Y246150D01*
X233850Y226200D02*
X246000D01*
X238800Y222435D02*
Y246150D01*
X238200Y222435D02*
Y246150D01*
X237600Y222309D02*
Y246150D01*
X237000Y222040D02*
Y234934D01*
X236400Y221572D02*
Y234243D01*
X241148Y220800D02*
X246000D01*
X240757Y221400D02*
X246000D01*
X241366Y220200D02*
X246000D01*
X241448Y219600D02*
X246000D01*
X241407Y219000D02*
X245500D01*
X244000Y217500D02*
X246000Y219500D01*
X241237Y218400D02*
X244900D01*
X240911Y217800D02*
X244300D01*
X241200Y217500D02*
Y218312D01*
X233850Y225600D02*
X246000D01*
X233781Y225000D02*
X246000D01*
X233487Y224400D02*
X246000D01*
X233443Y223800D02*
X246000D01*
X233339Y223200D02*
X246000D01*
X240066Y222000D02*
X246000D01*
X233097Y222600D02*
X246000D01*
X240669Y217500D02*
X244000D01*
X232668Y222000D02*
X236934D01*
X233850Y225500D02*
Y233234D01*
X230150Y226929D02*
Y234000D01*
X228040Y228000D02*
X230150D01*
X229800Y226866D02*
Y246150D01*
X229200Y226648D02*
Y246150D01*
X228600Y226257D02*
Y246150D01*
X235800Y220689D02*
Y233852D01*
X235200Y220350D02*
Y233634D01*
X234600Y220350D02*
Y233552D01*
X234000Y220350D02*
Y233384D01*
X228000Y225566D02*
Y227934D01*
X227572Y227400D02*
X230150D01*
X226689Y226800D02*
X229571D01*
X224400Y222809D02*
Y226763D01*
X223200Y222935D02*
Y227653D01*
X223800Y222935D02*
Y227089D01*
X227400Y220350D02*
Y227243D01*
X226800Y220350D02*
Y226852D01*
X226200Y221188D02*
Y226634D01*
X225600Y222072D02*
Y226552D01*
X231894Y221400D02*
X236243D01*
X233400Y220350D02*
Y223459D01*
X232800Y220350D02*
Y222153D01*
X232200Y220350D02*
Y221589D01*
X231600Y220350D02*
Y221263D01*
X231000Y220350D02*
Y221093D01*
X230400Y220350D02*
Y221052D01*
X226097Y221400D02*
X229106D01*
X225669Y222000D02*
X228331D01*
X226339Y220800D02*
X235852D01*
X225000Y222540D02*
Y226593D01*
X224894Y222600D02*
X227903D01*
X229800Y220350D02*
Y221134D01*
X229200Y220350D02*
Y221352D01*
X226429Y220350D02*
X235675D01*
X228000D02*
Y222434D01*
X228600Y220350D02*
Y221743D01*
X222600Y242341D02*
Y246150D01*
X219711Y242400D02*
X222612D01*
X220000Y241800D02*
X222550D01*
X220200Y241181D02*
Y246150D01*
X219600Y242585D02*
Y246150D01*
X220195Y241200D02*
X222612D01*
X220346Y240000D02*
X223163D01*
X223200Y231347D02*
Y239953D01*
X222600Y230041D02*
Y241259D01*
X220309Y240600D02*
X222805D01*
X207500Y246150D02*
X246000D01*
X207500Y246000D02*
X246000D01*
X207500Y245400D02*
X246000D01*
X216191Y244800D02*
X246000D01*
X217921Y244200D02*
X223785D01*
X218746Y243600D02*
X223163D01*
X219307Y243000D02*
X222805D01*
X219000Y243353D02*
Y246150D01*
X218400Y243884D02*
Y246150D01*
X220346Y239400D02*
X223650D01*
X220346Y238800D02*
X223650D01*
X220346Y238200D02*
X223650D01*
X220346Y237000D02*
Y240000D01*
Y237600D02*
X223650D01*
X220346Y237000D02*
X223650D01*
X220309Y236400D02*
X223650D01*
X220195Y235800D02*
X223650D01*
X220000Y235200D02*
X223650D01*
X219711Y234600D02*
X223650D01*
X219307Y234000D02*
X223650D01*
X218746Y233400D02*
X223650D01*
X217921Y232800D02*
X223650D01*
X216191Y232200D02*
X223650D01*
X207500Y231600D02*
X223428D01*
X207500Y231000D02*
X222960D01*
X207500Y230400D02*
X222691D01*
X207500Y229800D02*
X222565D01*
X207500Y229200D02*
X222565D01*
X217200Y244541D02*
Y246150D01*
X216600Y244723D02*
Y246150D01*
X216000Y244824D02*
Y246150D01*
X215400Y244849D02*
Y246150D01*
X214800Y244800D02*
Y246150D01*
X214200Y244674D02*
Y246150D01*
X217800Y244268D02*
Y246150D01*
X213600Y244464D02*
Y246150D01*
X213000Y244158D02*
Y246150D01*
X212400Y243733D02*
Y246150D01*
X207500Y244800D02*
X214801D01*
X207500Y244200D02*
X213071D01*
X207500Y243600D02*
X212246D01*
X211800Y243140D02*
Y246150D01*
X207500Y243000D02*
X211685D01*
X211200Y242251D02*
Y246150D01*
X207500Y242400D02*
X211281D01*
X207500Y241800D02*
X210993D01*
X207500Y242000D02*
Y246150D01*
Y241200D02*
X210797D01*
X207500Y240600D02*
X210683D01*
X207500Y240000D02*
X210646D01*
X207500Y239400D02*
X210646D01*
X207500Y238800D02*
X210646D01*
X216000Y228324D02*
Y232176D01*
X215400Y228349D02*
Y232151D01*
X210646Y237000D02*
Y240000D01*
X207500Y238200D02*
X210646D01*
X207500Y237600D02*
X210646D01*
X207500Y237000D02*
X210646D01*
X207500Y235200D02*
X210993D01*
X207500Y236400D02*
X210683D01*
X207500Y235800D02*
X210797D01*
X207500Y233400D02*
X212246D01*
X207500Y232800D02*
X213071D01*
X207500Y232200D02*
X214801D01*
X207500Y234600D02*
X211281D01*
X207500Y234000D02*
X211685D01*
X218379Y227400D02*
X223428D01*
X219050Y226800D02*
X224311D01*
X219600Y226085D02*
Y234415D01*
X219000Y226853D02*
Y233647D01*
X218400Y227385D02*
Y233116D01*
X222000Y222540D02*
Y246150D01*
X221400Y222072D02*
Y246150D01*
X222600Y222809D02*
Y228959D01*
X220800Y221188D02*
Y246150D01*
X220200Y224681D02*
Y235819D01*
X217200Y228041D02*
Y232459D01*
X216600Y228223D02*
Y232277D01*
X207500Y228600D02*
X222691D01*
X214800Y228300D02*
Y232200D01*
X214200Y228174D02*
Y232326D01*
X217800Y227768D02*
Y232732D01*
X217305Y228000D02*
X222960D01*
X213600Y227964D02*
Y232536D01*
X220108Y225000D02*
X227725D01*
X220262Y224400D02*
X227577D01*
X220346Y223200D02*
X227661D01*
X220337Y223800D02*
X227557D01*
X220346Y222600D02*
X222106D01*
X220346Y222000D02*
X221332D01*
X220345Y221400D02*
X220903D01*
X220346Y221500D02*
Y223500D01*
X220295Y220800D02*
X220661D01*
X219868Y225600D02*
X228022D01*
X219525Y226200D02*
X228535D01*
X220169Y220200D02*
X220557D01*
X219958Y219600D02*
X220577D01*
X220066Y219000D02*
X220725D01*
X220200Y218911D02*
Y220319D01*
X212400Y227233D02*
Y233267D01*
X211800Y226640D02*
Y233860D01*
X213000Y227658D02*
Y232842D01*
X211200Y225751D02*
Y234749D01*
X208200Y226412D02*
Y246150D01*
X208263Y226200D02*
X211467D01*
X210600Y217500D02*
Y246150D01*
X210000Y217500D02*
Y246150D01*
X208348Y225600D02*
X211124D01*
X209400Y217500D02*
Y246150D01*
X208800Y217500D02*
Y246150D01*
X207624Y227400D02*
X212613D01*
X207500Y228000D02*
X213687D01*
X208036Y226800D02*
X211942D01*
X207600Y227427D02*
Y246150D01*
X207500Y227530D02*
Y242000D01*
X208306Y225000D02*
X210884D01*
X208129Y224400D02*
X210730D01*
X208200Y217500D02*
Y224588D01*
X207787Y223800D02*
X210655D01*
X207500Y223200D02*
X210646D01*
X207500Y222600D02*
X210646D01*
Y221500D02*
Y223500D01*
X207500Y221000D02*
Y223470D01*
X211800Y217500D02*
Y218360D01*
X211500Y217500D02*
X212753D01*
X207600D02*
Y223573D01*
X211200Y217500D02*
Y219249D01*
X207500Y222000D02*
X210646D01*
X207500Y221400D02*
X210647D01*
X207500Y219600D02*
X211034D01*
X207500Y220800D02*
X210697D01*
X207500Y220200D02*
X210824D01*
X207500Y218400D02*
X211766D01*
X207500Y217800D02*
X212360D01*
X207500Y217500D02*
X211500D01*
X207500D02*
Y221000D01*
Y219000D02*
X211340D01*
X361987Y219600D02*
X368000D01*
X362281Y219000D02*
X368000D01*
X362350Y218400D02*
X368000D01*
X362350Y217800D02*
X368000D01*
X362350Y217200D02*
X368000D01*
X358691Y222600D02*
X368000D01*
X359616Y222000D02*
X368000D01*
X360216Y221400D02*
X368000D01*
X360816Y220800D02*
X368000D01*
X361416Y220200D02*
X368000D01*
X362350Y216600D02*
X368000D01*
X362350Y216000D02*
X368000D01*
X362350Y215400D02*
X368000D01*
X362350Y214800D02*
X368000D01*
X362916Y211200D02*
X368000D01*
X362350Y214200D02*
X368000D01*
X362350Y213600D02*
X368000D01*
X362350Y213000D02*
X368000D01*
X362350Y212400D02*
X368000D01*
X362350Y211800D02*
X368000D01*
X361800Y219816D02*
Y229000D01*
X361200Y220416D02*
Y229000D01*
X360600Y221016D02*
Y229000D01*
X363000Y211116D02*
Y229000D01*
X362400Y211716D02*
Y229000D01*
X358800Y222565D02*
Y229000D01*
X358200Y222673D02*
Y229000D01*
X357600Y222673D02*
Y229000D01*
X360000Y221616D02*
Y229000D01*
X359400Y222211D02*
Y229000D01*
X359485Y222131D02*
X361808Y219808D01*
X362350Y211766D02*
Y218500D01*
X358650Y211000D02*
Y217734D01*
X357000Y222673D02*
Y229000D01*
X356400Y222673D02*
Y229000D01*
X357411Y218973D02*
X358650Y217734D01*
X367800Y209878D02*
Y229000D01*
X368000Y209878D02*
Y229000D01*
X367200Y209878D02*
Y229000D01*
X366600Y209878D02*
Y229000D01*
X366000Y209878D02*
Y229000D01*
X365400Y209878D02*
Y229000D01*
X363516Y210600D02*
X368000D01*
X364800Y209878D02*
Y229000D01*
X364200Y209916D02*
Y229000D01*
X362350Y211766D02*
X364239Y209878D01*
X367800Y194350D02*
Y206178D01*
X368000Y194350D02*
Y206178D01*
X367200Y194350D02*
Y206178D01*
X366600Y194350D02*
Y206178D01*
X366000Y194350D02*
Y206178D01*
X364116Y210000D02*
X368000D01*
X364239Y209878D02*
X368000D01*
X363472Y206178D02*
X368000D01*
X365400Y194350D02*
Y206178D01*
X364800Y194350D02*
Y206178D01*
X363600Y210516D02*
Y229000D01*
X359192Y209692D02*
X362164Y206719D01*
X359400Y194350D02*
Y209484D01*
X358200Y194350D02*
Y218184D01*
X358800Y194350D02*
Y210270D01*
X357600Y194350D02*
Y218784D01*
X357000Y194350D02*
Y218973D01*
X356400Y194350D02*
Y218973D01*
X364200Y194350D02*
Y206178D01*
X363600Y194350D02*
Y206178D01*
X363000Y194350D02*
Y206239D01*
X362400Y194350D02*
Y206520D01*
X361800Y194350D02*
Y207084D01*
X361200Y194350D02*
Y207684D01*
X360600Y194350D02*
Y208284D01*
X360000Y194350D02*
Y208884D01*
X350500Y229000D02*
X368000D01*
X350500Y228600D02*
X368000D01*
X350500Y228000D02*
X368000D01*
X350500Y227400D02*
X368000D01*
X350500Y226800D02*
X368000D01*
X350500Y226200D02*
X368000D01*
X350500Y225600D02*
X368000D01*
X350500Y225000D02*
X368000D01*
X350500Y224400D02*
X368000D01*
X350500Y223800D02*
X368000D01*
X350500Y223200D02*
X368000D01*
X350500Y217800D02*
X358584D01*
X350500Y217200D02*
X358650D01*
X350500Y216600D02*
X358650D01*
X350500Y216000D02*
X358650D01*
X350500Y215400D02*
X358650D01*
X350500Y210000D02*
X358944D01*
X350500Y214800D02*
X358650D01*
X350500Y208800D02*
X360084D01*
X350500Y209400D02*
X359484D01*
X355800Y222673D02*
Y229000D01*
X355200Y222673D02*
Y229000D01*
X354600Y222673D02*
Y229000D01*
X354000Y222673D02*
Y229000D01*
X353400Y222673D02*
Y229000D01*
X352800Y222673D02*
Y229000D01*
X352200Y222673D02*
Y229000D01*
X351600Y222673D02*
Y229000D01*
X351000Y222673D02*
Y229000D01*
X350500Y222673D02*
Y229000D01*
Y222673D02*
X358177D01*
X350500Y218400D02*
X357984D01*
X350500Y218973D02*
X357411D01*
X350500Y214200D02*
X358650D01*
X350500Y213600D02*
X358650D01*
X350500Y213000D02*
X358650D01*
X350500Y212400D02*
X358650D01*
X350500Y211800D02*
X358650D01*
X350500Y211200D02*
X358650D01*
X350500Y210600D02*
X358694D01*
X350500Y205800D02*
X368000D01*
X350500Y205200D02*
X368000D01*
X350500Y204600D02*
X368000D01*
X350500Y204000D02*
X368000D01*
X350500Y203400D02*
X368000D01*
X350500Y202800D02*
X368000D01*
X350500Y202200D02*
X368000D01*
X350500Y201600D02*
X368000D01*
X350500Y201000D02*
X368000D01*
X350500Y200400D02*
X368000D01*
X354457Y198000D02*
X368000D01*
X354727Y197400D02*
X368000D01*
X354852Y196800D02*
X368000D01*
X354852Y196200D02*
X368000D01*
X354727Y195600D02*
X368000D01*
X350500Y199800D02*
X368000D01*
X353106Y199200D02*
X368000D01*
X353989Y198600D02*
X368000D01*
X354457Y195000D02*
X368000D01*
X354267Y194400D02*
X368000D01*
X354600Y197727D02*
Y218973D01*
X354000Y198589D02*
Y218973D01*
X353400Y199050D02*
Y218973D01*
X355800Y194350D02*
Y218973D01*
X355200Y194350D02*
Y218973D01*
X352800Y199315D02*
Y218973D01*
X352200Y199436D02*
Y218973D01*
X351600Y199433D02*
Y218973D01*
X351000Y199304D02*
Y218973D01*
X350500Y199087D02*
Y218973D01*
Y208200D02*
X360684D01*
X354600Y194350D02*
Y195273D01*
X354267Y194350D02*
X368000D01*
X354267D02*
Y194717D01*
X350500Y207000D02*
X361884D01*
X350500Y207600D02*
X361284D01*
X350500Y206400D02*
X362593D01*
X260000Y179000D02*
X264000Y175000D01*
X260200Y178800D02*
X285000D01*
X262000Y177000D02*
X284500D01*
X261400Y177600D02*
X285000D01*
X260800Y178200D02*
X285000D01*
X260400Y178600D02*
Y195400D01*
X260000Y179000D02*
Y195000D01*
X262200Y176800D02*
Y197200D01*
X261000Y178000D02*
Y196000D01*
X261600Y177400D02*
Y196600D01*
X260000Y179400D02*
X285000D01*
X260000Y180000D02*
X285000D01*
X260000Y180600D02*
X285000D01*
X260000Y181200D02*
X285000D01*
X260000Y181800D02*
X285000D01*
X260000Y182400D02*
X285000D01*
X260000Y183000D02*
X285000D01*
X260000Y183600D02*
X285000D01*
X260000Y184200D02*
X285000D01*
X260000Y184800D02*
X285000D01*
X260000Y185400D02*
X285000D01*
X260000Y186000D02*
X285000D01*
X260000Y186600D02*
X285000D01*
X260000Y187200D02*
X285000D01*
X260000Y187800D02*
X285000D01*
X260000Y188400D02*
X285000D01*
X260000Y195000D02*
X262500Y197500D01*
X261200Y196200D02*
X283800D01*
X260600Y195600D02*
X284400D01*
X261800Y196800D02*
X283200D01*
X262500Y197500D02*
X282500D01*
X262400Y197400D02*
X282600D01*
X260000Y189000D02*
X285000D01*
X260000Y189600D02*
X285000D01*
X260000Y190200D02*
X285000D01*
X260000Y190800D02*
X285000D01*
X260000Y191400D02*
X285000D01*
X260000Y192000D02*
X285000D01*
X260000Y192600D02*
X285000D01*
X260000Y193200D02*
X285000D01*
X260000Y193800D02*
X285000D01*
X260000Y194400D02*
X285000D01*
X260000Y195000D02*
X285000D01*
X264000Y175000D02*
Y197500D01*
X264600Y175000D02*
Y197500D01*
X265200Y175000D02*
Y197500D01*
X265800Y175000D02*
Y197500D01*
X266400Y175000D02*
Y197500D01*
X267000Y175000D02*
Y197500D01*
X267600Y175000D02*
Y197500D01*
X268200Y175000D02*
Y197500D01*
X268800Y175000D02*
Y197500D01*
X269400Y175000D02*
Y197500D01*
X270000Y175000D02*
Y197500D01*
X264000Y175000D02*
X282500D01*
X263800Y175200D02*
X282700D01*
X270600Y175000D02*
Y197500D01*
X271200Y175000D02*
Y197500D01*
X271800Y175000D02*
Y197500D01*
X272400Y175000D02*
Y197500D01*
X273000Y175000D02*
Y197500D01*
X273600Y175000D02*
Y197500D01*
X274200Y175000D02*
Y197500D01*
X274800Y175000D02*
Y197500D01*
X275400Y175000D02*
Y197500D01*
X263400Y175600D02*
Y197500D01*
X262800Y176200D02*
Y197500D01*
X276000Y175000D02*
Y197500D01*
X276600Y175000D02*
Y197500D01*
X277200Y175000D02*
Y197500D01*
X277800Y175000D02*
Y197500D01*
X278400Y175000D02*
Y197500D01*
X279000Y175000D02*
Y197500D01*
X279600Y175000D02*
Y197500D01*
X280200Y175000D02*
Y197500D01*
X280800Y175000D02*
Y197500D01*
X263200Y175800D02*
X283300D01*
X262600Y176400D02*
X283900D01*
X282500Y175000D02*
X285000Y177500D01*
X284400Y176900D02*
Y195600D01*
X285000Y177500D02*
Y195000D01*
X281400Y175000D02*
Y197500D01*
X282000Y175000D02*
Y197500D01*
X282600Y175100D02*
Y197400D01*
X283200Y175700D02*
Y196800D01*
X283800Y176300D02*
Y196200D01*
X282500Y197500D02*
X285000Y195000D01*
X257375Y172800D02*
X258153D01*
X253500Y178800D02*
X258312D01*
X253500Y179400D02*
X258300D01*
X257169Y177000D02*
X259596D01*
X253500Y178200D02*
X258500D01*
X256394Y177600D02*
X258996D01*
X257400Y172774D02*
Y173285D01*
X258600Y173097D02*
Y178036D01*
X257478Y173400D02*
X259459D01*
X259200Y173339D02*
Y177396D01*
X260400Y173423D02*
Y176196D01*
X257597Y176400D02*
X260196D01*
X259800Y173443D02*
Y176796D01*
X253500Y180000D02*
X258300D01*
X253500Y177540D02*
Y205000D01*
Y180600D02*
X258300D01*
X253500Y181200D02*
X258300D01*
X253500Y181800D02*
X258300D01*
X253500Y182400D02*
X258300D01*
X253500Y183000D02*
X258300D01*
X253500Y183600D02*
X258300D01*
X253500Y184200D02*
X258300D01*
X256800Y177337D02*
Y201805D01*
X253800Y177695D02*
Y205000D01*
X257400Y176715D02*
Y201612D01*
X258000Y172669D02*
Y201550D01*
X254400Y177888D02*
Y205000D01*
X255000Y177950D02*
Y205000D01*
X258300Y179000D02*
Y195000D01*
X255600Y177888D02*
Y202785D01*
X256200Y177695D02*
Y202163D01*
X262200Y168000D02*
Y168535D01*
X261566Y168000D02*
X269093D01*
X262257Y168600D02*
X269052D01*
X260541Y173400D02*
X263425D01*
X262648Y169200D02*
X269134D01*
X261847Y172800D02*
X290500D01*
X262411Y172200D02*
X290500D01*
X262800Y168000D02*
Y169571D01*
X263400Y168000D02*
Y173409D01*
X264000Y168000D02*
Y173300D01*
X264600Y168000D02*
Y173300D01*
X262866Y169800D02*
X269352D01*
X265200Y168000D02*
Y173300D01*
X262948Y170400D02*
X269743D01*
X262737Y171600D02*
X290500D01*
X262907Y171000D02*
X270434D01*
X261600Y172978D02*
Y174996D01*
X261000Y173275D02*
Y175596D01*
X262800Y171429D02*
Y173796D01*
X262200Y172465D02*
Y174396D01*
X257943Y175200D02*
X261396D01*
X257839Y175800D02*
X260796D01*
X257775Y174000D02*
X262596D01*
X257923Y174600D02*
X261996D01*
X258800Y177796D02*
X262796Y173800D01*
X265800Y168000D02*
Y173300D01*
X266400Y168000D02*
Y173300D01*
X267000Y168000D02*
Y173300D01*
X267600Y168000D02*
Y173300D01*
X268200Y168000D02*
Y173300D01*
X264000D02*
X282500D01*
X268800Y168000D02*
Y173300D01*
X253500Y184800D02*
X258300D01*
X253500Y185400D02*
X258300D01*
X253500Y186000D02*
X258300D01*
X253500Y186600D02*
X258300D01*
X253500Y187200D02*
X258300D01*
X253500Y187800D02*
X258300D01*
X253500Y188400D02*
X258300D01*
X253500Y189000D02*
X258300D01*
X253500Y189600D02*
X258300D01*
X253500Y190200D02*
X258300D01*
X253500Y190800D02*
X258300D01*
X253500Y191400D02*
X258300D01*
X253500Y192000D02*
X258300D01*
X253500Y192600D02*
X258300D01*
X253500Y193200D02*
X258300D01*
X253500Y193800D02*
X258300D01*
X253500Y194400D02*
X258300D01*
X253500Y195000D02*
X258300D01*
X253500Y195600D02*
X258409D01*
X253500Y196200D02*
X258796D01*
X253500Y196800D02*
X259396D01*
X253500Y197400D02*
X259996D01*
X253500Y203400D02*
X255263D01*
X253500Y204000D02*
X255093D01*
X253500Y201600D02*
X257459D01*
X253500Y202200D02*
X256153D01*
X253500Y202800D02*
X255589D01*
X258600Y195964D02*
Y201612D01*
X259200Y196604D02*
Y201805D01*
X253500Y204600D02*
X255052D01*
X253500Y205000D02*
X255093D01*
X259800Y197204D02*
Y202163D01*
X260400Y197804D02*
Y202428D01*
X253500Y198000D02*
X260596D01*
X261000Y198404D02*
Y201960D01*
X253500Y198600D02*
X261196D01*
X258800Y196204D02*
X261296Y198700D01*
X253500Y199200D02*
X262500D01*
X258541Y201600D02*
X261959D01*
X253500Y199800D02*
X290500D01*
X253500Y200400D02*
X290500D01*
X253500Y201000D02*
X290500D01*
X262200Y199173D02*
Y201565D01*
X261600Y198942D02*
Y201691D01*
X262800Y199200D02*
Y201565D01*
X263400Y199200D02*
Y201691D01*
X262500Y199200D02*
X282500D01*
X262500D02*
X282500D01*
X263041Y201600D02*
X290500D01*
X264000Y199200D02*
Y201960D01*
X264600Y199200D02*
Y202428D01*
X265200Y199200D02*
Y203311D01*
X259847Y202200D02*
X260653D01*
X265407Y204000D02*
X269225D01*
X264347Y202200D02*
X271071D01*
X264911Y202800D02*
X270035D01*
X265237Y203400D02*
X269522D01*
X265800Y199200D02*
Y205000D01*
X266400Y199200D02*
Y205000D01*
X267000Y199200D02*
Y205000D01*
X267600Y199200D02*
Y205000D01*
X268200Y199200D02*
Y205000D01*
X265448Y204600D02*
X269077D01*
X265407Y205000D02*
X269050D01*
X268800Y199200D02*
Y205000D01*
X269400Y169894D02*
Y173300D01*
X270000Y170668D02*
Y173300D01*
X270600Y171097D02*
Y173300D01*
X271200Y171339D02*
Y173300D01*
X271800Y171443D02*
Y173300D01*
X272400Y171423D02*
Y173300D01*
X273000Y171275D02*
Y173300D01*
X273600Y170978D02*
Y173300D01*
X275400Y168000D02*
Y173300D01*
X276000Y168000D02*
Y173300D01*
X276600Y168000D02*
Y173300D01*
X274200Y170465D02*
Y173300D01*
X274800Y169429D02*
Y173300D01*
X277200Y168000D02*
Y173300D01*
X277800Y168000D02*
Y173300D01*
X278400Y168000D02*
Y173300D01*
X279000Y168000D02*
Y173300D01*
X279600Y168000D02*
Y173300D01*
X280200Y168000D02*
Y173300D01*
X280800Y168000D02*
Y173300D01*
X281400Y168000D02*
Y173300D01*
X282000Y168000D02*
Y173300D01*
X282600Y168000D02*
Y173303D01*
X283200Y168000D02*
Y173451D01*
X283800Y168000D02*
Y173896D01*
X284400Y168000D02*
Y174496D01*
X285000Y168000D02*
Y175096D01*
X285600Y168000D02*
Y175696D01*
X286200Y168000D02*
Y176296D01*
X283704Y173800D02*
X286200Y176296D01*
X286800Y168000D02*
Y205000D01*
X274907Y168000D02*
X290500D01*
X274948Y168600D02*
X290500D01*
X274866Y169200D02*
X290500D01*
X274648Y169800D02*
X290500D01*
X274257Y170400D02*
X290500D01*
X273566Y171000D02*
X290500D01*
X283074Y173400D02*
X290500D01*
X283904Y174000D02*
X290500D01*
X284504Y174600D02*
X290500D01*
X285104Y175200D02*
X290500D01*
X285704Y175800D02*
X290500D01*
X286296Y176400D02*
X290500D01*
X286625Y177000D02*
X290500D01*
X286700Y177600D02*
X290500D01*
X286700Y178200D02*
X290500D01*
X286700Y178800D02*
X290500D01*
X286700Y179400D02*
X290500D01*
X286700Y180000D02*
X290500D01*
X286700Y180600D02*
X290500D01*
X286700Y181200D02*
X290500D01*
X286700Y181800D02*
X290500D01*
X286700Y182400D02*
X290500D01*
X286700Y184800D02*
X288811D01*
X286700Y183000D02*
X290500D01*
X286700Y183600D02*
X290500D01*
X286700Y184200D02*
X290500D01*
X288000Y168000D02*
Y185331D01*
X287400Y168000D02*
Y186106D01*
X289200Y168000D02*
Y184660D01*
X288600Y168000D02*
Y184903D01*
X289800Y168000D02*
Y184557D01*
X286700Y177500D02*
Y195000D01*
X290400Y168000D02*
Y184577D01*
X290500Y168000D02*
Y184593D01*
X270000Y199200D02*
Y202832D01*
X269400Y199200D02*
Y203606D01*
X271200Y199200D02*
Y202161D01*
X270600Y199200D02*
Y202403D01*
X271800Y199200D02*
Y202057D01*
X272400Y199200D02*
Y202077D01*
X273000Y199200D02*
Y202225D01*
X273600Y199200D02*
Y202522D01*
X283704Y198700D02*
X286200Y196204D01*
X274200Y199200D02*
Y203035D01*
X274800Y199200D02*
Y204071D01*
X275400Y199200D02*
Y205000D01*
X276000Y199200D02*
Y205000D01*
X276600Y199200D02*
Y205000D01*
X277200Y199200D02*
Y205000D01*
X277800Y199200D02*
Y205000D01*
X278400Y199200D02*
Y205000D01*
X279000Y199200D02*
Y205000D01*
X279600Y199200D02*
Y205000D01*
X280200Y199200D02*
Y205000D01*
X274950D02*
X286000D01*
X280800Y199200D02*
Y205000D01*
X284400Y198004D02*
Y205000D01*
X285000Y197404D02*
Y205000D01*
X285600Y196804D02*
Y205000D01*
X286200Y196204D02*
Y205000D01*
X281400Y199200D02*
Y205000D01*
X282000Y199200D02*
Y205000D01*
X282600Y199197D02*
Y205000D01*
X283200Y199049D02*
Y205000D01*
X283800Y198604D02*
Y205000D01*
X286700Y186600D02*
X287191D01*
X286700Y187200D02*
X287065D01*
X286700Y185400D02*
X287928D01*
X286700Y186000D02*
X287460D01*
X286700Y187800D02*
X287065D01*
X286700Y188400D02*
X287191D01*
X286700Y189000D02*
X287460D01*
X286591Y195600D02*
X290500D01*
X286700Y189600D02*
X287928D01*
X286700Y190200D02*
X288811D01*
X286700Y190800D02*
X290500D01*
X286700Y191400D02*
X290500D01*
X286700Y192000D02*
X290500D01*
X286700Y192600D02*
X290500D01*
X286700Y193200D02*
X290500D01*
X286700Y193800D02*
X290500D01*
X286700Y194400D02*
X290500D01*
X286700Y195000D02*
X290500D01*
X285004Y197400D02*
X290500D01*
X284404Y198000D02*
X290500D01*
X283804Y198600D02*
X290500D01*
X282500Y199200D02*
X290500D01*
X272929Y202200D02*
X290500D01*
X273965Y202800D02*
X290500D01*
X274478Y203400D02*
X290500D01*
X274775Y204000D02*
X290500D01*
X274923Y204600D02*
X290500D01*
X287400Y188894D02*
Y205000D01*
X288000Y189669D02*
Y205000D01*
X288600Y190097D02*
Y205000D01*
X289200Y190340D02*
Y205000D01*
X289800Y190443D02*
Y205000D01*
X290400Y190423D02*
Y205000D01*
X290500Y190407D02*
Y205000D01*
X286204Y196200D02*
X290500D01*
X285604Y196800D02*
X290500D01*
X286000Y205000D02*
X290500D01*
X374500Y149500D02*
Y175500D01*
X375000Y149500D02*
Y175500D01*
X375600Y149500D02*
Y175500D01*
X376200Y149500D02*
Y175500D01*
X376800Y149500D02*
Y175500D01*
X377400Y149500D02*
Y175500D01*
X378000Y149500D02*
Y175500D01*
X378600Y149500D02*
Y175500D01*
X379200Y149500D02*
Y175500D01*
X379800Y149500D02*
Y175500D01*
X380400Y149500D02*
Y175500D01*
X381000Y149500D02*
Y175500D01*
X381600Y149500D02*
Y175500D01*
X382200Y149500D02*
Y175500D01*
X382800Y149500D02*
Y175500D01*
X383400Y149500D02*
Y175500D01*
X374500Y149500D02*
X402884D01*
X374500Y150000D02*
X403384D01*
X374500Y150600D02*
X403984D01*
X374500Y151200D02*
X404770D01*
X374500Y151800D02*
X416000D01*
X374500Y152400D02*
X416000D01*
X374500Y153000D02*
X416000D01*
X374500Y153600D02*
X416000D01*
X374500Y154200D02*
X416000D01*
X374500Y154800D02*
X416000D01*
X374500Y155400D02*
X416000D01*
X374500Y156000D02*
X416000D01*
X384000Y149500D02*
Y175500D01*
X384600Y149500D02*
Y175500D01*
X385200Y149500D02*
Y175500D01*
X374500Y156600D02*
X416000D01*
X374500Y164400D02*
X414250D01*
X374500Y165000D02*
X414150D01*
X374500Y165600D02*
X414150D01*
X374500Y166200D02*
X414150D01*
X374500Y166800D02*
X414150D01*
X374500Y167400D02*
X414150D01*
X374500Y171000D02*
X413884D01*
X374500Y168000D02*
X414150D01*
X374500Y172200D02*
X412684D01*
X374500Y171600D02*
X413284D01*
X374500Y173400D02*
X407106D01*
X374500Y172800D02*
X412084D01*
X374500Y174600D02*
X405903D01*
X374500Y174000D02*
X406331D01*
X374500Y175200D02*
X405661D01*
X374500Y175500D02*
X405593D01*
X374500Y157200D02*
X416000D01*
X374500Y157800D02*
X416000D01*
X374500Y158400D02*
X416000D01*
X374500Y159000D02*
X416000D01*
X374500Y159600D02*
X416000D01*
X374500Y160200D02*
X416000D01*
X374500Y160800D02*
X416000D01*
X374500Y161400D02*
X416000D01*
X374500Y162600D02*
X415784D01*
X374500Y162000D02*
X416000D01*
X374500Y163800D02*
X414592D01*
X374500Y163200D02*
X415184D01*
X374500Y168600D02*
X414150D01*
X374500Y169200D02*
X414150D01*
X374500Y169800D02*
X414150D01*
X374500Y170400D02*
X414150D01*
X385800Y149500D02*
Y175500D01*
X386400Y149500D02*
Y175500D01*
X387000Y149500D02*
Y175500D01*
X387600Y149500D02*
Y175500D01*
X388200Y149500D02*
Y175500D01*
X388800Y149500D02*
Y175500D01*
X389400Y149500D02*
Y175500D01*
X390000Y149500D02*
Y175500D01*
X390600Y149500D02*
Y175500D01*
X391200Y149500D02*
Y175500D01*
X391800Y149500D02*
Y175500D01*
X392400Y149500D02*
Y175500D01*
X393000Y149500D02*
Y175500D01*
X393600Y149500D02*
Y175500D01*
X394200Y149500D02*
Y175500D01*
X394800Y149500D02*
Y175500D01*
X395400Y149500D02*
Y175500D01*
X396000Y149500D02*
Y175500D01*
X396600Y149500D02*
Y175500D01*
X397200Y149500D02*
Y175500D01*
X397800Y149500D02*
Y175500D01*
X398400Y149500D02*
Y175500D01*
X399000Y149500D02*
Y175500D01*
X402884Y149500D02*
X404192Y150808D01*
X399600Y149500D02*
Y175500D01*
X400200Y149500D02*
Y175500D01*
X400800Y149500D02*
Y175500D01*
X401400Y149500D02*
Y175500D01*
X402000Y149500D02*
Y175500D01*
X402600Y149500D02*
Y175500D01*
X403200Y149816D02*
Y175500D01*
X403800Y150416D02*
Y175500D01*
X406800Y151350D02*
Y173589D01*
X405500Y151350D02*
X407900D01*
X407400D02*
Y173263D01*
X408000Y151350D02*
Y173093D01*
X408600Y151350D02*
Y173052D01*
X409200Y151350D02*
Y173134D01*
X404400Y150987D02*
Y175500D01*
X405000Y151281D02*
Y175500D01*
X405600Y151350D02*
Y175459D01*
X406200Y151350D02*
Y174153D01*
X409800Y151350D02*
Y173352D01*
X410400Y151350D02*
Y173743D01*
X411000Y151350D02*
Y173884D01*
X414600Y151350D02*
Y163791D01*
X407900Y151350D02*
X416000D01*
X415200D02*
Y163184D01*
X415800Y151350D02*
Y162584D01*
X416000Y151350D02*
Y162384D01*
X414692Y163692D02*
X416000Y162384D01*
X411600Y151350D02*
Y173284D01*
X412200Y151350D02*
Y172684D01*
X409894Y173400D02*
X411484D01*
X410769Y174115D02*
X414150Y170734D01*
X412800Y151350D02*
Y172084D01*
X413400Y151350D02*
Y171484D01*
X414000Y151350D02*
Y170884D01*
X414150Y165000D02*
Y170734D01*
D11*
X207000Y193000D02*
D03*
X411500Y208500D02*
D03*
X368000Y242500D02*
D03*
X422000Y182000D02*
D03*
D12*
X419000Y195700D02*
D03*
X219000Y211500D02*
D03*
Y204000D02*
D03*
X229000Y207700D02*
D03*
Y204000D02*
D03*
Y211500D02*
D03*
X409000Y195700D02*
D03*
X419000Y192000D02*
D03*
Y199500D02*
D03*
X409000Y192000D02*
D03*
X229000Y198000D02*
D03*
Y190500D02*
D03*
Y194200D02*
D03*
X219000Y190500D02*
D03*
Y198000D02*
D03*
D13*
X265630Y260500D02*
D03*
X244370D02*
D03*
X230630D02*
D03*
X209370D02*
D03*
D14*
X366500Y155500D02*
D03*
Y169000D02*
D03*
X325000Y145000D02*
D03*
X349000D02*
D03*
D15*
X444000Y142500D02*
D03*
X435000D02*
D03*
X400500Y248500D02*
D03*
Y239500D02*
D03*
X410500D02*
D03*
X317000Y206500D02*
D03*
X431500Y248500D02*
D03*
X422500D02*
D03*
X410500D02*
D03*
X405500Y218000D02*
D03*
Y227500D02*
D03*
X326000Y206500D02*
D03*
X279000Y145500D02*
D03*
X273000Y235500D02*
D03*
X264000D02*
D03*
X395500Y227500D02*
D03*
X386500D02*
D03*
X269000Y145500D02*
D03*
Y136500D02*
D03*
X211000Y202000D02*
D03*
Y211000D02*
D03*
X264000Y225000D02*
D03*
X273000D02*
D03*
X336000Y220500D02*
D03*
Y211500D02*
D03*
X414500Y218000D02*
D03*
Y227500D02*
D03*
X279000Y136500D02*
D03*
X389500Y248500D02*
D03*
Y239500D02*
D03*
X326500Y229500D02*
D03*
Y220500D02*
D03*
X317000Y229500D02*
D03*
Y220500D02*
D03*
X361000Y182000D02*
D03*
X370000D02*
D03*
D16*
X475500Y145500D02*
D03*
X462000D02*
D03*
X475500Y134500D02*
D03*
X462000D02*
D03*
D17*
X409000Y199500D02*
D03*
D18*
X252504Y222500D02*
D03*
X252504Y238374D02*
D03*
X215496Y238500D02*
D03*
D19*
X215496Y222500D02*
D03*
D20*
X408500Y144000D02*
D03*
X413500D02*
D03*
X408500Y182000D02*
D03*
X403500Y144000D02*
D03*
X398500D02*
D03*
X393500D02*
D03*
X388500D02*
D03*
X383500D02*
D03*
X378500D02*
D03*
Y182000D02*
D03*
X383500D02*
D03*
X388500D02*
D03*
X393500D02*
D03*
X398500D02*
D03*
X403500D02*
D03*
D21*
X413500D02*
D03*
D22*
X316500Y189000D02*
D03*
Y196500D02*
D03*
D23*
X324500Y192700D02*
D03*
D24*
X345500Y228500D02*
D03*
D25*
Y218264D02*
D03*
X373059Y213146D02*
D03*
Y215705D02*
D03*
X373059Y228500D02*
D03*
X373059Y225941D02*
D03*
Y223382D02*
D03*
Y220823D02*
D03*
Y218264D02*
D03*
Y210587D02*
D03*
Y208028D02*
D03*
Y205469D02*
D03*
Y202909D02*
D03*
Y197791D02*
D03*
Y195232D02*
D03*
X345500D02*
D03*
Y197791D02*
D03*
Y200350D02*
D03*
Y205469D02*
D03*
Y208028D02*
D03*
Y210587D02*
D03*
Y213146D02*
D03*
Y215705D02*
D03*
Y220823D02*
D03*
Y223382D02*
D03*
Y225941D02*
D03*
Y202909D02*
D03*
X373059Y200350D02*
D03*
D26*
X296016Y199098D02*
D03*
Y189650D02*
D03*
Y192799D02*
D03*
Y173902D02*
D03*
X247984Y202248D02*
D03*
Y199098D02*
D03*
Y195949D02*
D03*
Y192799D02*
D03*
Y189650D02*
D03*
Y186500D02*
D03*
Y183350D02*
D03*
X296016Y170752D02*
D03*
Y177051D02*
D03*
Y180201D02*
D03*
Y183350D02*
D03*
Y186500D02*
D03*
Y202248D02*
D03*
X247984Y180201D02*
D03*
Y177051D02*
D03*
X296016Y195949D02*
D03*
X247984Y173902D02*
D03*
Y170752D02*
D03*
D27*
X259402Y210516D02*
D03*
X275150Y162484D02*
D03*
X259402D02*
D03*
X262551D02*
D03*
X284598Y210516D02*
D03*
X281449D02*
D03*
X278299D02*
D03*
X275150D02*
D03*
X272000D02*
D03*
X268850D02*
D03*
X265701D02*
D03*
X256252D02*
D03*
X268850Y162484D02*
D03*
X272000D02*
D03*
X281449D02*
D03*
X284598D02*
D03*
X287748D02*
D03*
X265701D02*
D03*
X278299D02*
D03*
X256252D02*
D03*
D28*
X262551Y210516D02*
D03*
D29*
X287748Y210516D02*
D03*
D30*
X166902Y264118D02*
D03*
D31*
Y261559D02*
D03*
Y259000D02*
D03*
Y256441D02*
D03*
Y253882D02*
D03*
Y251323D02*
D03*
X192098Y253882D02*
D03*
Y256441D02*
D03*
Y259000D02*
D03*
Y261559D02*
D03*
Y264118D02*
D03*
Y266677D02*
D03*
Y251323D02*
D03*
D32*
X166902Y266677D02*
D03*
D33*
X257500Y135063D02*
D03*
Y139000D02*
D03*
Y142937D02*
D03*
D34*
X200000Y238795D02*
D03*
Y234071D02*
D03*
D35*
X194488Y145488D02*
D03*
Y244307D02*
D03*
X109843D02*
D03*
Y136827D02*
D03*
D36*
X200000Y228953D02*
D03*
Y212713D02*
D03*
Y222260D02*
D03*
Y202870D02*
D03*
Y193028D02*
D03*
Y183185D02*
D03*
Y173343D02*
D03*
D37*
Y153657D02*
D03*
Y163500D02*
D03*
D38*
X215496Y238500D02*
X219996D01*
X215496D02*
Y244500D01*
X210996Y238500D02*
X215496D01*
Y232500D02*
Y238500D01*
X215496Y222500D02*
Y228000D01*
Y222500D02*
X219996D01*
X210996D02*
X215496D01*
X413500Y182000D02*
X422000D01*
X411500Y204000D02*
Y208500D01*
X288000Y170500D02*
X290000Y168500D01*
X276000Y216500D02*
Y219500D01*
X275150Y210516D02*
Y215650D01*
X276000Y216500D01*
X389500Y248500D02*
X393500D01*
X335000Y207000D02*
X336000Y211500D01*
X329500Y210000D02*
Y212500D01*
X333000Y216000D01*
X339000D01*
X332000Y220500D02*
X336000D01*
X331000Y219500D02*
X332000Y220500D01*
X331000Y217500D02*
Y219500D01*
X326000Y212500D02*
X331000Y217500D01*
X309000Y212500D02*
X326000D01*
X307500Y214000D02*
X309000Y212500D01*
X307500Y214000D02*
Y218500D01*
X309000Y220000D01*
X311500D01*
X321500Y215500D02*
X326500Y220500D01*
X311500Y215500D02*
X321500D01*
X317000Y220500D02*
X321500Y225000D01*
X331000D01*
X331941Y225941D01*
X345500D01*
X326500Y229500D02*
X331000D01*
X332000Y228500D01*
X345500D01*
X317000Y229500D02*
Y234000D01*
X326000Y206500D02*
X329500Y210000D01*
X339000Y216000D02*
X341264Y218264D01*
X345500D01*
X309500Y209500D02*
X312500Y206500D01*
X317000D01*
X305000Y209000D02*
X308000Y206000D01*
X305000Y209000D02*
Y224000D01*
X307000Y226000D01*
Y236000D01*
X419000Y192000D02*
X422000D01*
X426000Y188000D01*
X433000D01*
X434000Y189000D01*
Y190000D01*
X433000Y191000D02*
X434000Y190000D01*
X427000Y191000D02*
X433000D01*
X426000Y192000D02*
X427000Y191000D01*
X426000Y192000D02*
Y193500D01*
X427000Y194500D01*
X434500D01*
X443500Y185500D01*
X235500Y265500D02*
X237500Y267500D01*
X364500D01*
X320000Y150000D02*
X325000Y145000D01*
X312000Y150000D02*
X320000D01*
X310000Y152000D02*
X312000Y150000D01*
X310000Y152000D02*
Y158500D01*
X306500Y162000D02*
X310000Y158500D01*
X257500Y129000D02*
Y135063D01*
X256500Y128000D02*
X257500Y129000D01*
X236500Y128000D02*
X256500D01*
X274500Y141000D02*
X279000Y136500D01*
X265500Y141000D02*
X274500D01*
X263500Y139000D02*
X265500Y141000D01*
X257500Y139000D02*
X263500D01*
X255500Y142500D02*
X257500Y142937D01*
X251000Y142500D02*
X255500D01*
X244000D02*
X251000D01*
X203500Y157500D02*
X205000D01*
X202488Y145488D02*
X202500Y145500D01*
X194488Y145488D02*
X202488D01*
X387500Y134000D02*
X389000Y135500D01*
X387000Y130500D02*
X389000Y128500D01*
X317000Y136500D02*
X319000Y134500D01*
X300000Y136500D02*
X317000D01*
X291000Y152500D02*
Y157000D01*
Y152500D02*
X292500Y151000D01*
Y137000D02*
Y151000D01*
Y137000D02*
X295000Y134500D01*
X315500D01*
X317500Y132500D01*
X386000D01*
X387500Y134000D01*
X378500Y130500D02*
X387000D01*
X316000D02*
X378500D01*
X314000Y132500D02*
X316000Y130500D01*
X293500Y132500D02*
X314000D01*
X290500Y135500D02*
X293500Y132500D01*
X290500Y135500D02*
Y150000D01*
X285000Y155500D02*
X290500Y150000D01*
X285000Y155500D02*
Y157000D01*
X295500Y138000D02*
X297000Y136500D01*
X300000D01*
X319000Y134500D02*
X363000D01*
X366500Y138000D01*
Y155500D01*
X238500Y122500D02*
X276000D01*
X235000D02*
X238500D01*
X228000D02*
X235000D01*
X425000Y133500D02*
X437500D01*
X425500Y136500D02*
X427500D01*
X439000Y147500D02*
Y154200D01*
Y147500D02*
X444000Y142500D01*
X432000Y145500D02*
X435000Y142500D01*
X396000Y139000D02*
X398500Y141500D01*
Y144000D01*
X393500Y141500D02*
X396000Y139000D01*
X393500Y141500D02*
Y144000D01*
X195000Y212500D02*
X200000Y212713D01*
X204787D01*
X267000Y259000D02*
X273000D01*
X275500Y261500D02*
Y264000D01*
X277000Y265500D01*
X273000Y259000D02*
X275500Y261500D01*
X439000Y132000D02*
X456500D01*
X437500Y133500D02*
X439000Y132000D01*
X423000Y133500D02*
X425000D01*
X427500Y136500D02*
X453000D01*
X421000D02*
X425500D01*
X418500Y137000D02*
X421000Y136500D01*
X416500Y133500D02*
X419500D01*
X421000D01*
X423000D01*
X166000Y171000D02*
X166200D01*
X342500Y247500D02*
X342600D01*
X337409Y202909D02*
X345500D01*
X373059Y197791D02*
X401291D01*
X338500Y188500D02*
X399500D01*
X326000Y201000D02*
X338500Y188500D01*
X378000Y201000D02*
X383500D01*
X377350Y200350D02*
X378000Y201000D01*
X373059Y200350D02*
X377350D01*
X377500Y203000D02*
X380000Y204500D01*
X373000Y203000D02*
X377500D01*
X382000Y207500D02*
X384972Y207528D01*
X380500Y207500D02*
X382000D01*
X378000D02*
X380500D01*
X377472Y208028D02*
X378000Y207500D01*
X373059Y208028D02*
X377472D01*
X230500Y224000D02*
X232000Y225500D01*
Y234000D01*
X234500Y236500D01*
X252902Y173902D02*
X255000Y175000D01*
X247984Y173902D02*
X252902D01*
X223500Y220000D02*
X225000Y218500D01*
X236500D01*
X238500Y219500D01*
X305500Y237500D02*
X307000Y236000D01*
X305500Y237500D02*
Y242500D01*
X302500Y264000D02*
X304000Y265500D01*
X301000D02*
X302500Y264000D01*
X266000Y248000D02*
X273000Y241000D01*
X263500Y248000D02*
X266000D01*
X273500Y245500D02*
X275500D01*
X276500Y244500D01*
Y242500D02*
Y244500D01*
X308000Y206000D02*
X311000Y203000D01*
X206500Y248000D02*
X263500D01*
X205500Y247000D02*
X206500Y248000D01*
X205500Y225500D02*
Y247000D01*
X200000Y222260D02*
X201260D01*
X296016Y202248D02*
X300248D01*
X301500Y203500D01*
Y205500D01*
X287000Y221500D02*
Y231500D01*
Y221500D02*
X287748Y220752D01*
Y210516D02*
Y220752D01*
X320000Y160000D02*
X325000Y155000D01*
X313000Y160000D02*
X320000D01*
X309500Y163500D02*
X313000Y160000D01*
X311000Y203000D02*
X313000Y201000D01*
X326000D01*
X330800Y192700D02*
X337000Y186500D01*
X324500Y192700D02*
X330800D01*
X242299Y192799D02*
X247984D01*
X190500Y167000D02*
X194000Y163500D01*
X200000D01*
X252504Y222500D02*
X257500D01*
X260000Y225000D01*
X264000D01*
X305051Y195949D02*
X312000Y189000D01*
X316500D01*
X322500Y186500D02*
X324500Y188500D01*
X321500Y185500D02*
X322500Y186500D01*
X311500Y185500D02*
X321500D01*
X218500Y216500D02*
X221000D01*
X224000D01*
X239000D01*
X244984Y210516D01*
X256252D01*
X399500Y188500D02*
X403500Y184500D01*
Y182000D02*
Y184500D01*
X339500Y211500D02*
X341146Y213146D01*
X345500D01*
X255500Y151500D02*
X258000D01*
X240000D02*
X255500D01*
X238000D02*
X240000D01*
X258000D02*
X259402Y152902D01*
Y162484D01*
X414000Y125000D02*
X416500Y127500D01*
Y133500D01*
X413500Y136500D02*
X416500Y133500D01*
X413500Y136500D02*
Y144000D01*
X408500Y138000D02*
Y141000D01*
Y144000D01*
X259500Y260500D02*
X265630D01*
X258000D02*
X259500D01*
X265630D02*
X267130Y259000D01*
X109843Y244307D02*
X114000Y243000D01*
X109843Y136827D02*
X118173D01*
X351354Y213146D02*
X356000Y208500D01*
X345500Y213146D02*
X351354D01*
X253000Y236500D02*
X256500Y235500D01*
X252504Y238374D02*
X253000Y236500D01*
X256500Y235500D02*
X264000D01*
X248200Y246000D02*
X262500D01*
X215496Y222500D02*
X220500D01*
X248000Y217000D02*
X249500Y215500D01*
X246000Y216000D02*
X246288D01*
X246000D02*
Y217000D01*
X246288Y216000D02*
X246644Y216356D01*
X246000Y217000D02*
X248000D01*
X249500Y215500D02*
X258000D01*
X259000Y216500D01*
X260500D01*
X263000D01*
X247700Y245700D02*
X248200Y246000D01*
X248500Y245500D02*
X249000Y246000D01*
X247700Y245700D02*
X247900Y245500D01*
X248500D01*
X262500Y246000D02*
X273000Y235500D01*
X272000Y210516D02*
Y216500D01*
X268850Y217150D02*
Y230650D01*
X264000Y235500D02*
X268850Y230650D01*
Y210516D02*
Y217150D01*
X209370Y266000D02*
X209370Y266000D01*
X209370Y260500D02*
Y266000D01*
X173000Y234500D02*
X185000Y222500D01*
X173000Y234500D02*
Y238500D01*
X324500Y234000D02*
X326500D01*
X363500Y222000D02*
X364777Y220823D01*
X373059D01*
X363500Y222000D02*
X364982Y223382D01*
X373059D01*
X364500Y254500D02*
X366500Y256500D01*
X363500Y265500D02*
X366500Y262500D01*
X304000Y265500D02*
X363500D01*
X247984Y170752D02*
X255252D01*
X213500Y171000D02*
X217500Y175000D01*
X228500D01*
X426500Y254000D02*
X432500Y260000D01*
X426500Y252500D02*
Y254000D01*
X422500Y248500D02*
X426500Y252500D01*
X275000Y254000D02*
X279500D01*
X206000Y250000D02*
X273000D01*
X275000Y248000D01*
X280000D01*
X274500Y252000D02*
X276500Y251000D01*
X215500Y252000D02*
X274500D01*
X219000Y254000D02*
X275000D01*
X270000Y265500D02*
X272500Y263000D01*
X278500Y203500D02*
X280800Y202000D01*
X287500D01*
X291000Y205500D01*
Y221000D01*
X218500Y268500D02*
X221500Y271500D01*
X376500D01*
X371000Y246500D02*
Y261000D01*
Y246500D02*
X384000Y233500D01*
X404500D01*
X410500Y239500D01*
X427500Y244500D02*
X431500Y248500D01*
X408000Y244500D02*
X427500D01*
X379000Y251500D02*
Y260000D01*
X278299Y156201D02*
X285500Y149000D01*
X276000Y125500D02*
X285500Y135000D01*
X278299Y156201D02*
Y162484D01*
X285500Y135000D02*
Y149000D01*
X152500Y158500D02*
X154500Y156500D01*
X179500D02*
X182000Y159000D01*
X262000Y157000D02*
X262551Y158051D01*
X154500Y156500D02*
X179500D01*
X182000Y159000D02*
X191500D01*
X193000Y157500D01*
X262551Y158051D02*
Y162484D01*
X158500Y198000D02*
X163500Y203000D01*
X151500Y172500D02*
X158500Y179500D01*
X163500Y203000D02*
X172500D01*
X142500Y172500D02*
X151500D01*
X158500Y179500D02*
Y198000D01*
X378146Y213146D02*
X380500Y215500D01*
X399000D02*
X401500Y218000D01*
X373059Y213146D02*
X378146D01*
X380500Y215500D02*
X399000D01*
X401500Y218000D02*
X405500D01*
X377205Y215705D02*
X379500Y218000D01*
X397000D02*
X400000Y221000D01*
Y226000D02*
X401500Y227500D01*
X373059Y215705D02*
X377205D01*
X379500Y218000D02*
X397000D01*
X401500Y227500D02*
X405500D01*
X400000Y221000D02*
Y226000D01*
X296016Y195949D02*
X305051D01*
X265701Y155701D02*
Y162484D01*
X183000Y221000D02*
Y221500D01*
X206000Y160000D02*
X209500Y156500D01*
X188500Y165500D02*
X192500Y161500D01*
X219500Y159000D02*
X223500Y161000D01*
X194000Y160000D02*
X197500D01*
X192500Y161500D02*
X194000Y160000D01*
X197500D02*
X206000D01*
X223500Y161000D02*
X228500D01*
X209500Y156500D02*
X211500D01*
X401268Y195232D02*
X404500Y192000D01*
X373059Y195232D02*
X401268D01*
X404500Y192000D02*
X409000D01*
X401291Y197791D02*
X403000Y199500D01*
X409000D01*
X242000Y183500D02*
X247984Y183350D01*
X290000Y187500D02*
X293000Y186500D01*
X388500Y174500D02*
Y176000D01*
X272000Y152500D02*
X279000Y145500D01*
X377618Y223382D02*
X380000Y222000D01*
X356000Y208500D02*
X361591Y202909D01*
X377823Y220823D02*
X380000Y222000D01*
X293000Y186500D02*
X296016D01*
X383500Y152000D02*
X388500D01*
X378500D02*
X383500D01*
X374059Y210587D02*
X380000Y210500D01*
X373059Y223382D02*
X377618D01*
X373059Y220823D02*
X377823D01*
X336000Y211500D02*
X339500D01*
X378500Y174000D02*
X388500D01*
Y174500D01*
X361591Y202909D02*
X373059D01*
X244370Y260500D02*
X251000D01*
X272000Y152500D02*
Y156500D01*
Y162484D01*
X383500Y144000D02*
Y152000D01*
X378500Y144000D02*
Y152000D01*
X388500Y144000D02*
Y152000D01*
X378500Y174000D02*
Y182000D01*
X388500Y176000D02*
Y182000D01*
X393500Y174500D02*
Y182000D01*
X272000Y162484D02*
Y168500D01*
Y205000D02*
Y210516D01*
X384972Y207528D02*
X386000Y207000D01*
X358177Y220823D02*
X360500Y218500D01*
Y211000D02*
X363472Y208028D01*
X454500Y187000D02*
X459000D01*
X335323Y220823D02*
X336000Y220500D01*
X335323Y220823D02*
X345500D01*
X358177D01*
X363472Y208028D02*
X373059D01*
X462000Y134500D02*
Y145500D01*
Y151000D01*
X360500Y211000D02*
Y218500D01*
X462000Y151000D02*
Y184000D01*
X407900Y149500D02*
X415500D01*
X405500D02*
X407900D01*
X403500Y144000D02*
Y147500D01*
X405500Y149500D01*
X288000Y183500D02*
X296016Y183350D01*
X351917Y192083D02*
X352000Y192000D01*
X275150Y203950D02*
X275600Y203500D01*
X247984Y186500D02*
X254500D01*
X275600Y203500D02*
X278500D01*
X307500Y250000D02*
X308500Y248000D01*
X288000Y170500D02*
Y183500D01*
X395500Y222500D02*
Y227500D01*
X254500Y186500D02*
Y204000D01*
X275150Y203950D02*
Y210516D01*
X280000Y248000D02*
X284000Y244000D01*
X285500Y242500D01*
Y235000D02*
Y242500D01*
X307500Y260000D02*
X312500Y255000D01*
X284598Y232098D02*
X285500Y233000D01*
X312500Y241500D02*
X316000Y238000D01*
X312500Y241500D02*
Y255000D01*
X285500Y233000D02*
Y235000D01*
X284598Y210516D02*
Y232098D01*
X191000Y210000D02*
X193000Y208000D01*
X200000D01*
X284500Y158000D02*
X284598Y162484D01*
X284500Y158000D02*
X285500Y156500D01*
X287748Y159752D02*
X288000Y159000D01*
X289000Y157000D02*
X291000D01*
X288000Y158000D02*
X289000Y157000D01*
X287748Y159752D02*
Y162484D01*
X288000Y158000D02*
Y159000D01*
X185000Y183000D02*
Y191500D01*
Y180500D02*
Y183000D01*
Y180500D02*
X190500Y175000D01*
X187000Y182000D02*
Y193000D01*
Y194500D01*
Y198500D01*
X189000Y204500D02*
X190697Y202803D01*
X200000D01*
X189000Y209000D02*
Y222500D01*
X411500Y176000D02*
X416000Y171500D01*
X408500Y176000D02*
X411500D01*
X416000Y165000D02*
X419000Y162000D01*
X416000Y165000D02*
Y171500D01*
X408500Y176000D02*
Y179000D01*
X276500Y242500D02*
X278500Y240500D01*
X239000Y264500D02*
X240000Y265500D01*
X322500Y234000D02*
X324500D01*
X317000D02*
X322500D01*
X272000Y247000D02*
X273500Y245500D01*
X240000Y265500D02*
X270000D01*
X278299Y210516D02*
Y215799D01*
X278500Y232000D02*
Y240500D01*
X238000Y263000D02*
X239000Y264500D01*
X420500Y218000D02*
X425000Y213500D01*
X457000D02*
X470500Y200000D01*
X473000Y137500D02*
X475500Y134500D01*
X414500Y218000D02*
X420500D01*
X425000Y213500D02*
X457000D01*
X470500Y140000D02*
Y150000D01*
X473500Y152500D02*
X475500Y150500D01*
X458500Y216000D02*
X473500Y201000D01*
X426000Y216000D02*
X458500D01*
X473500Y152500D02*
Y201000D01*
X475500Y145500D02*
Y150500D01*
X339000Y145000D02*
X344000Y150000D01*
X360500D01*
X325000Y145000D02*
X339000D01*
X325000Y155000D02*
X339000D01*
X351500Y170000D02*
X356000Y165500D01*
X339000Y165000D02*
X344000Y170000D01*
X351500D01*
X325000Y165000D02*
X339000D01*
X352000Y179500D02*
X356000Y175500D01*
X339000Y175000D02*
X343500Y179500D01*
X352000D01*
X325000Y175000D02*
X339000D01*
X281449Y156051D02*
X287500Y150000D01*
X276000Y122500D02*
X287500Y134000D01*
X281449Y156051D02*
Y162484D01*
X287500Y134000D02*
Y150000D01*
X268850Y144150D02*
X269000Y145500D01*
X438874Y172157D02*
X443500Y176783D01*
Y185500D01*
X435500Y196500D02*
X445500Y186500D01*
X431000Y172158D02*
X435658Y167500D01*
X442000D02*
X445500Y171000D01*
X435658Y167500D02*
X442000D01*
X445500Y171000D02*
Y186500D01*
X322000Y137500D02*
X324000Y139500D01*
X343500D02*
X349000Y145000D01*
X324000Y139500D02*
X343500D01*
X242000Y202248D02*
X242500Y202248D01*
X242000Y202248D02*
X247984D01*
X279000Y136500D02*
X283500Y141000D01*
Y148000D01*
X296016Y173902D02*
X303098D01*
X309500Y167500D01*
Y163500D02*
Y167500D01*
X296016Y170752D02*
X301748D01*
X306500Y166000D01*
Y162000D02*
Y166000D01*
X264500Y149500D02*
Y151500D01*
X261000Y146000D02*
X264500Y149500D01*
X217000Y156500D02*
X219500Y159000D01*
X211500Y156500D02*
X217000D01*
X228000Y155500D02*
X235000Y148500D01*
X220500Y155500D02*
X228000D01*
X217500Y153500D02*
X220500Y155500D01*
X216000Y152500D02*
X217500Y153500D01*
X213500Y151000D02*
X216000Y152500D01*
X262000Y152000D02*
Y157000D01*
Y150000D02*
Y152000D01*
X260500Y148500D02*
X262000Y150000D01*
X228500Y161000D02*
X238000Y151500D01*
X235000Y148500D02*
X252000D01*
X203000Y125500D02*
X276000D01*
X470500Y155000D02*
Y200000D01*
Y150000D02*
Y155000D01*
Y140000D02*
X473000Y137500D01*
X275150Y156350D02*
Y162484D01*
Y156350D02*
X283500Y148000D01*
X412500Y255000D02*
Y260000D01*
X411500Y254000D02*
X412500Y255000D01*
X401500Y254000D02*
X411500D01*
X400500Y253000D02*
X401500Y254000D01*
X400500Y248500D02*
Y253000D01*
X422500Y254500D02*
Y260000D01*
X421500Y253500D02*
X422500Y254500D01*
X417500Y253500D02*
X421500D01*
X416500Y252500D02*
X417500Y253500D01*
X416500Y249500D02*
Y252500D01*
X415500Y248500D02*
X416500Y249500D01*
X410500Y248500D02*
X415500D01*
X438500Y256000D02*
X442500Y260000D01*
X190500Y167000D02*
Y175000D01*
X188500Y165500D02*
Y173500D01*
X257000Y146000D02*
X261000D01*
X251000D02*
X257000D01*
X234000D02*
X251000D01*
X229000Y151000D02*
X234000Y146000D01*
X223500Y151000D02*
X229000D01*
X459000Y187000D02*
X462000Y184000D01*
X393500Y248500D02*
X395000Y250000D01*
X427000Y196500D02*
X435500D01*
X424000Y199500D02*
X427000Y196500D01*
X419000Y199500D02*
X424000D01*
X176000Y228500D02*
X183000Y221500D01*
X177000Y233500D02*
X187000Y223500D01*
X177000Y233500D02*
Y238500D01*
X181000Y269500D02*
X195500D01*
X216000Y257000D02*
X219000Y254000D01*
X216000Y257000D02*
Y264000D01*
X210500Y269500D02*
X216000Y264000D01*
X195500Y269500D02*
X210500D01*
X192098Y266677D02*
X200323D01*
X262500Y204500D02*
X262551Y210516D01*
X258000Y204500D02*
X259402Y205902D01*
Y210516D01*
X326500Y234000D02*
X333500D01*
X278299Y215799D02*
X279000Y216500D01*
Y222000D01*
X278500Y222500D02*
X279000Y222000D01*
X278500Y222500D02*
Y232000D01*
X213500Y161000D02*
X218500Y166000D01*
X227000D01*
X239000Y154000D01*
X254500D01*
X256252Y155752D01*
X291000Y221000D02*
Y222500D01*
X193000Y157500D02*
X203500D01*
X183500Y233000D02*
X191000Y225500D01*
Y214000D02*
Y225500D01*
X225500Y229500D02*
Y234400D01*
Y235400D01*
Y241800D01*
X177500Y269500D02*
X181000D01*
X172500Y264500D02*
X177500Y269500D01*
X172500Y260000D02*
Y264500D01*
X171500Y259000D02*
X172500Y260000D01*
X166902Y259000D02*
X171500D01*
X192098Y261559D02*
X196059D01*
X196500Y262000D01*
Y263500D01*
X195882Y264118D02*
X196500Y263500D01*
X192098Y264118D02*
X195882D01*
X207000Y252000D02*
X215500D01*
X187382Y253882D02*
X192098D01*
X186500Y252500D02*
X187382Y253882D01*
X166902Y251323D02*
X167000Y247500D01*
X161618Y253882D02*
X166902D01*
X161500Y254000D02*
X161618Y253882D01*
X183500Y233000D02*
Y238500D01*
X180000Y242000D02*
X183500Y238500D01*
X164000Y242000D02*
X180000D01*
X161500Y244500D02*
X164000Y242000D01*
X161500Y244500D02*
Y254000D01*
Y256500D02*
X166902Y256441D01*
X161500Y254000D02*
Y256500D01*
X183000Y184000D02*
Y192500D01*
X185000Y193500D02*
Y222500D01*
X187000Y201000D02*
Y223500D01*
X183000Y192500D02*
Y221000D01*
X185000Y191500D02*
Y193500D01*
X187000Y198500D02*
Y201000D01*
X189000Y204500D02*
Y209000D01*
X191000Y210000D02*
Y214000D01*
X344000Y160000D02*
X360500D01*
X339000Y155000D02*
X344000Y160000D01*
X393500Y144000D02*
Y150900D01*
X392400Y152000D02*
X393500Y150900D01*
X388500Y152000D02*
X392400D01*
X383500Y174500D02*
Y182000D01*
X408500Y179000D02*
Y182000D01*
X277000Y265500D02*
X301000D01*
X281449Y210516D02*
Y242551D01*
X280000Y244000D02*
X281449Y242551D01*
X296016Y177051D02*
X303051D01*
X305500Y179500D01*
X318000D01*
X320000Y177500D01*
Y170000D02*
Y177500D01*
Y170000D02*
X325000Y165000D01*
X296016Y180201D02*
X302201D01*
X304000Y182000D01*
X322000D01*
X325000Y179000D01*
Y175000D02*
Y179000D01*
X405000Y195700D02*
X409000D01*
X177500Y150000D02*
X187000Y140500D01*
X204000D01*
X209500Y146000D01*
X214500D01*
X227000D01*
X230500Y142500D01*
X244000D01*
X252000Y148500D02*
X256500D01*
X260500D01*
X180500Y181500D02*
X183000Y184000D01*
X201000Y123500D02*
X203000Y125500D01*
X177000Y127000D02*
X180500Y123500D01*
X166500Y137500D02*
X174000Y130000D01*
X180500Y181500D02*
X188500Y173500D01*
X166902Y256441D02*
X174941D01*
X176000Y257500D01*
X398500Y144000D02*
Y150300D01*
X397900Y150900D02*
X398500Y150300D01*
X393500Y150900D02*
X397900D01*
X310500Y226500D02*
Y238000D01*
X309500Y239000D02*
X310500Y238000D01*
X309500Y239000D02*
Y246500D01*
X308500Y248000D02*
X309500Y246500D01*
X302500Y224500D02*
Y230000D01*
X296016Y199098D02*
X302598D01*
X305000Y201500D01*
Y205500D01*
X302500Y208000D02*
X305000Y205500D01*
X302500Y208000D02*
Y224500D01*
X179500Y137000D02*
X185500Y131000D01*
X207000D01*
X209500Y128000D02*
X236500D01*
X203500D02*
X209500D01*
X198500D02*
X203500D01*
X180500Y123500D02*
X201000D01*
X418500Y227500D02*
X419000Y227000D01*
X420000Y222000D02*
X426000Y216000D01*
X194500Y239000D02*
Y244295D01*
X194488Y244307D02*
X194500Y244295D01*
X265701Y152701D02*
Y155701D01*
X264500Y151500D02*
X265701Y152701D01*
X269000Y132000D02*
Y136500D01*
X232252Y170752D02*
X247984D01*
X164382Y264118D02*
X166902D01*
X163500Y265000D02*
X164382Y264118D01*
X161500Y265000D02*
X163500D01*
X164559Y261559D02*
X166902D01*
X164000Y261000D02*
X164559Y261559D01*
X161500Y261000D02*
X164000D01*
X173000Y249500D02*
X179000D01*
X176000Y257500D02*
Y261500D01*
X226000Y268500D02*
X235000D01*
X236000Y269500D01*
X365500D01*
X224000Y259000D02*
Y263500D01*
X226000Y265500D01*
X235500D01*
X364500Y267500D02*
X371000Y261000D01*
X373000Y247500D02*
Y262000D01*
X365500Y269500D02*
X373000Y262000D01*
X376500Y271500D02*
X384500Y263500D01*
Y245500D02*
Y263500D01*
Y245500D02*
X386000Y244000D01*
X396000D01*
X400500Y239500D01*
X405500Y242000D02*
X408000Y244500D01*
X405500Y237500D02*
Y242000D01*
X403500Y235500D02*
X405500Y237500D01*
X393500Y235500D02*
X403500D01*
X389500Y239500D02*
X393500Y235500D01*
X296016Y192799D02*
X304201D01*
X311500Y185500D01*
X296016Y189650D02*
X302850D01*
X307000Y185500D01*
X265701Y210516D02*
Y218799D01*
X264000Y220500D02*
X265701Y218799D01*
X264000Y220500D02*
Y225000D01*
X230630Y260500D02*
X235500D01*
X238000Y263000D01*
X200000Y208000D02*
X205000D01*
X211000Y202000D01*
X237650Y204000D02*
X239650Y206000D01*
X242051Y195949D02*
X247984D01*
X240500Y196000D02*
X242051Y195949D01*
X245000Y206000D02*
X252600D01*
X254500Y204000D01*
X244000Y206000D02*
X245000D01*
X200000Y180000D02*
Y183185D01*
Y180000D02*
X200500Y179500D01*
X204500D01*
X224000Y213000D02*
X225500Y214500D01*
X227000D01*
X238000D01*
X244000Y208500D01*
Y206000D02*
Y208500D01*
X239650Y206000D02*
X244000D01*
X229000Y211500D02*
X234000D01*
X236000Y209500D01*
Y207000D02*
Y209500D01*
X243650Y189650D02*
X247984D01*
X242500Y188500D02*
X243650Y189650D01*
X237500Y183500D02*
X242500Y188500D01*
X224700Y207200D02*
X229000Y207700D01*
X235000Y204000D02*
X237650D01*
X233000D02*
X235000D01*
X229000D02*
X230500D01*
X233000D01*
X183618Y264118D02*
X192098D01*
X181000Y261500D02*
X183618Y264118D01*
X176000Y261500D02*
X181000D01*
X192098Y251323D02*
X197177D01*
X197000Y259000D02*
X206000Y250000D01*
X192098Y259000D02*
X197000D01*
X203000Y256000D02*
X207000Y252000D01*
X203000Y256000D02*
Y258000D01*
X200500Y260500D02*
X203000Y258000D01*
X241201Y180201D02*
X247984D01*
X240000Y179000D02*
X241201Y180201D01*
X231000Y179000D02*
X240000D01*
X296016Y186500D02*
X301000D01*
X302000D01*
X189000Y222500D02*
Y224500D01*
X180500Y233000D02*
X189000Y224500D01*
X180500Y233000D02*
Y236500D01*
X174000Y130000D02*
X177000Y127000D01*
X187000Y182000D02*
X192500Y176500D01*
X239098Y199098D02*
X247984D01*
X240500Y202500D02*
X242500Y202248D01*
X239500Y202500D02*
X240500D01*
X238000Y201000D02*
X239500Y202500D01*
X207500Y178500D02*
Y184000D01*
X205500Y176500D02*
X207500Y178500D01*
X205500Y174000D02*
Y176500D01*
X181000Y169000D02*
Y173500D01*
X176500Y164500D02*
X181000Y169000D01*
X172500Y160500D02*
X176500Y164500D01*
X168500Y160500D02*
X172500D01*
X164000D02*
X168500D01*
X229500Y180500D02*
X231000Y179000D01*
X229500Y180500D02*
Y183000D01*
X227000Y185500D02*
X229500Y183000D01*
X219000Y185500D02*
X227000D01*
X213500Y181000D02*
X219000Y185500D01*
X232248Y170752D02*
X232252D01*
X232000Y171000D02*
X232248Y170752D01*
X223500Y171000D02*
X232000D01*
X205000Y157500D02*
X206000Y156500D01*
Y152500D02*
Y156500D01*
Y152500D02*
X207500Y151000D01*
X213500D01*
X240500Y194000D02*
Y196000D01*
X235500Y201000D02*
X238000D01*
X233500Y197500D02*
X237500D01*
X229000Y198000D02*
X231500D01*
X215000Y190500D02*
X219000D01*
X229000D02*
X233000D01*
X236500Y194000D01*
X234000Y187500D02*
X240500Y194000D01*
X211000Y187500D02*
X234000D01*
X207500Y184000D02*
X211000Y187500D01*
X237500Y197500D02*
X239098Y199098D01*
X233000Y197500D02*
X233500D01*
X192500Y174500D02*
Y176500D01*
Y174500D02*
X193658Y173343D01*
X200000D01*
X366500Y256500D02*
Y262500D01*
X287000Y231500D02*
X296000Y240500D01*
Y246000D02*
X297500Y250000D01*
X293500Y254000D02*
X297500Y250000D01*
X281500Y254000D02*
X293500D01*
X279500D02*
X281500D01*
X229598Y173902D02*
X247984D01*
X228500Y175000D02*
X229598Y173902D01*
X227449Y177051D02*
X247984D01*
X223500Y181000D02*
X227449Y177051D01*
X235000Y185500D02*
X242299Y192799D01*
X233500Y185500D02*
X235000D01*
X233000Y185000D02*
X233500Y185500D01*
X233000Y182000D02*
Y185000D01*
X215000Y199000D02*
X217000Y201000D01*
X214800Y207200D02*
X224700D01*
X211000Y211000D02*
X214800Y207200D01*
X216500Y204000D02*
X219000D01*
X213000D02*
X216500D01*
X211000Y202000D02*
X213000Y204000D01*
X208000Y199000D02*
X211000Y202000D01*
X203500Y199000D02*
X208000D01*
X200000D02*
X203500D01*
X200000Y193028D02*
Y199000D01*
X194740Y222260D02*
X200000D01*
X193000Y224000D02*
X194740Y222260D01*
X193000Y224000D02*
Y226500D01*
X185500Y234000D02*
X193000Y226500D01*
X185500Y234000D02*
Y239500D01*
X183000Y242000D02*
X185500Y239500D01*
X183000Y242000D02*
Y254500D01*
X184941Y256441D01*
X192098D01*
X171500Y233000D02*
X176000Y228500D01*
X160000Y233000D02*
X171500D01*
X156000D02*
X160000D01*
X386000Y227500D02*
X386500D01*
X385500Y227000D02*
X386000Y227500D01*
X382000Y227000D02*
X385500D01*
X449000Y167500D02*
Y189000D01*
X445500Y164000D02*
X449000Y167500D01*
X432000Y159000D02*
X436500Y164000D01*
X414500Y227500D02*
X418500D01*
X419000Y223000D02*
X420000Y222000D01*
X419000Y223000D02*
Y227000D01*
X366500Y169000D02*
X377700D01*
X378500Y169800D01*
Y174000D01*
X337000Y186500D02*
X343000D01*
X354500D01*
X365500D01*
X370000Y182000D01*
X355500D02*
X361000D01*
X354000Y183500D02*
X355500Y182000D01*
X348500Y183500D02*
X354000D01*
X217000Y201000D02*
X221500D01*
X222500Y202000D01*
X225500D01*
X226500Y201000D01*
X235500D01*
X226000Y194500D02*
X229000Y194200D01*
X225000Y194500D02*
X226000D01*
X295500Y138000D02*
Y144000D01*
X218000Y258000D02*
Y265000D01*
X211500Y271500D02*
X218000Y265000D01*
X166902Y266677D02*
X171177D01*
X176000Y271500D01*
X196500D01*
X211500D01*
X218000Y258000D02*
X220000Y256000D01*
X271000D01*
X273000D01*
X276500D01*
X300000Y207000D02*
X301500Y205500D01*
X300000Y207000D02*
Y224000D01*
X298000Y226000D02*
X300000Y224000D01*
X298000Y226000D02*
Y243000D01*
X301500Y246500D01*
Y253500D01*
X302500Y257500D02*
Y264000D01*
Y257500D02*
X303500Y256500D01*
Y245500D02*
Y256500D01*
X302500Y244500D02*
X303500Y245500D01*
X302500Y230000D02*
Y244500D01*
X296000Y240500D02*
Y246000D01*
X256252Y162484D02*
Y167752D01*
X257000Y168500D01*
X258000D01*
X260000Y170500D01*
X256252Y155752D02*
Y162484D01*
X194500Y169000D02*
X207000D01*
X208500Y170500D01*
Y175500D01*
X210000Y177000D01*
X219500D01*
X223500Y181000D01*
X359000Y242500D02*
X368000D01*
X357500Y244000D02*
Y250000D01*
Y244000D02*
X359000Y242500D01*
X269000Y145500D02*
Y150000D01*
X268850Y154150D02*
Y162484D01*
Y154150D02*
X269000Y154000D01*
Y150000D02*
Y154000D01*
X138500Y150000D02*
X177500D01*
X134000Y154500D02*
X138500Y150000D01*
X382000Y227000D02*
Y230500D01*
X380500Y232000D02*
X382000Y230500D01*
X335500Y232000D02*
X380500D01*
X333500Y234000D02*
X335500Y232000D01*
X435000Y203000D02*
X449000Y189000D01*
X433500Y204500D02*
X435000Y203000D01*
X431500Y206500D02*
X433500Y204500D01*
X114000Y243000D02*
X117500D01*
X194488Y145488D02*
Y150488D01*
X194500Y150500D01*
X466500Y152000D02*
Y177000D01*
Y152000D02*
X468000Y150500D01*
X466500Y130000D02*
X468000Y131500D01*
X465000Y128500D02*
X466500Y130000D01*
X439000Y128500D02*
X465000D01*
X435000Y124500D02*
X439000Y128500D01*
X431500Y124500D02*
X435000D01*
X414800Y195700D02*
X419000D01*
X414200Y196300D02*
X414800Y195700D01*
X415500Y149500D02*
X417000Y148000D01*
Y143000D02*
Y148000D01*
Y143000D02*
X420500Y139500D01*
X427500D01*
X432000D01*
X435000Y142500D01*
X212000Y191500D02*
Y194500D01*
X208000Y187500D02*
X212000Y191500D01*
X205000Y187500D02*
X208000D01*
X200000Y193028D02*
X206972D01*
X207000Y193000D01*
X432000Y145500D02*
Y159000D01*
X436500Y164000D02*
X445500D01*
X438500Y254000D02*
Y256000D01*
X437000Y252500D02*
X438500Y254000D01*
X435500Y252500D02*
X437000D01*
X431500Y248500D02*
X435500Y252500D01*
X373000Y247500D02*
X381000Y239500D01*
X389500D01*
X215000Y197500D02*
Y199000D01*
X214000Y196500D02*
X215000Y197500D01*
X213000Y195500D02*
X214000Y196500D01*
X212000Y194500D02*
X213000Y195500D01*
X290500Y246000D02*
X292500Y247500D01*
X288500Y246000D02*
X290500D01*
X285000D02*
X288500D01*
X280000Y251000D02*
X285000Y246000D01*
X276500Y251000D02*
X280000D01*
X276500Y256000D02*
X299000D01*
X301500Y253500D01*
X279000Y260000D02*
X287500D01*
X468000Y131500D02*
Y150500D01*
X226000Y198000D02*
X229000D01*
X224000Y199000D02*
X226000Y198000D01*
X231500D02*
X233000Y197500D01*
X475000Y100000D02*
X475981Y100032D01*
X476958Y100128D01*
X477926Y100288D01*
X478882Y100511D01*
X479822Y100796D01*
X480740Y101142D01*
X481634Y101547D01*
X482500Y102010D01*
X483334Y102528D01*
X484131Y103100D01*
X484890Y103722D01*
X485607Y104393D01*
X486278Y105110D01*
X486900Y105869D01*
X487472Y106667D01*
X487990Y107500D01*
X488453Y108366D01*
X488858Y109260D01*
X489204Y110178D01*
X489489Y111118D01*
X489712Y112074D01*
X489872Y113042D01*
X489968Y114019D01*
X490000Y115000D01*
Y260000D02*
X489968Y260981D01*
X489872Y261958D01*
X489712Y262926D01*
X489489Y263882D01*
X489204Y264822D01*
X488858Y265740D01*
X488453Y266634D01*
X487990Y267500D01*
X487472Y268334D01*
X486900Y269131D01*
X486278Y269890D01*
X485607Y270607D01*
X484890Y271278D01*
X484131Y271900D01*
X483334Y272472D01*
X482500Y272990D01*
X481634Y273453D01*
X480740Y273858D01*
X479822Y274204D01*
X478882Y274489D01*
X477926Y274712D01*
X476958Y274872D01*
X475981Y274968D01*
X475000Y275000D01*
X115000D02*
X114019Y274968D01*
X113042Y274872D01*
X112074Y274712D01*
X111118Y274489D01*
X110178Y274204D01*
X109260Y273858D01*
X108366Y273453D01*
X107500Y272990D01*
X106667Y272472D01*
X105869Y271900D01*
X105110Y271278D01*
X104393Y270607D01*
X103722Y269890D01*
X103100Y269131D01*
X102528Y268334D01*
X102010Y267500D01*
X101547Y266634D01*
X101142Y265740D01*
X100796Y264822D01*
X100511Y263882D01*
X100288Y262926D01*
X100128Y261958D01*
X100032Y260981D01*
X100000Y260000D01*
Y115000D02*
X100032Y114019D01*
X100128Y113042D01*
X100288Y112074D01*
X100511Y111118D01*
X100796Y110178D01*
X101142Y109260D01*
X101547Y108366D01*
X102010Y107500D01*
X102528Y106667D01*
X103100Y105869D01*
X103722Y105110D01*
X104393Y104393D01*
X105110Y103722D01*
X105869Y103100D01*
X106667Y102528D01*
X107500Y102010D01*
X108366Y101547D01*
X109260Y101142D01*
X110178Y100796D01*
X111118Y100511D01*
X112074Y100288D01*
X113042Y100128D01*
X114019Y100032D01*
X115000Y100000D01*
Y275000D02*
X475000D01*
X100000Y115000D02*
Y260000D01*
X115000Y100000D02*
X475000D01*
X489900Y114300D02*
X490000Y260000D01*
D39*
X229500Y168000D02*
X239800Y157700D01*
X244000D01*
X427000Y143000D02*
Y146500D01*
X328000Y180000D02*
X335000D01*
X147500Y212500D02*
X154500D01*
X166000Y171000D02*
Y177000D01*
X163500Y179500D02*
X166000Y177000D01*
X163500Y179500D02*
Y188000D01*
X342500Y242500D02*
Y247500D01*
X125500Y136500D02*
Y143500D01*
Y136500D02*
X137500Y124500D01*
Y113500D02*
Y124500D01*
X292500Y230000D02*
X296000Y224000D01*
X315000Y165000D02*
Y175000D01*
X125500Y167500D02*
X136000Y178000D01*
Y186000D01*
X273000Y225000D02*
Y235500D01*
Y221000D02*
Y225000D01*
X460500Y198000D02*
Y203000D01*
X454500Y209000D02*
X460500Y203000D01*
X348000Y235500D02*
X357500D01*
X320400Y237500D02*
X339000D01*
X362500Y235500D02*
X376000D01*
X357500D02*
X362500D01*
X386000Y207000D02*
X391500Y201500D01*
X412000Y203500D02*
X414200Y201300D01*
Y190300D02*
X416500Y188000D01*
X399000Y201500D02*
X401000Y203500D01*
X391500Y201500D02*
X399000D01*
X401000Y203500D02*
X412000D01*
X414200Y196300D02*
Y201300D01*
Y190300D02*
Y196300D01*
X180000Y206000D02*
Y209500D01*
X178000Y144500D02*
X185000Y137500D01*
X334000Y198000D02*
X340000Y192000D01*
X131000Y143500D02*
X132500Y144500D01*
X287000Y127000D02*
X289500D01*
X185000Y137500D02*
X187500D01*
X132500Y144500D02*
X136500D01*
X125500Y143500D02*
X131000D01*
X136500Y144500D02*
X160500D01*
X178000D01*
X350000Y192000D02*
X352000D01*
X400500D01*
X340000D02*
X343000D01*
X350000D01*
X210000Y137500D02*
X213500Y141000D01*
X187500Y137500D02*
X210000D01*
X386500Y222500D02*
X395500D01*
X180000Y193000D02*
Y206000D01*
X351917Y192083D02*
Y196500D01*
X289500Y127000D02*
X291500Y129000D01*
X439500Y209000D02*
X441500D01*
X454500D01*
X437500D02*
X439500D01*
X202500Y113500D02*
X209500Y106500D01*
X372500Y113500D02*
X380000Y106000D01*
X420000D02*
X427500Y113500D01*
X171500Y193000D02*
X175500Y197000D01*
X365500Y106500D02*
X372500Y113500D01*
X305500Y106500D02*
X312500D01*
X319500D02*
X365500D01*
X312500D02*
X319500D01*
X380000Y106000D02*
X420000D01*
X209500Y106500D02*
X305500D01*
X171500Y171000D02*
Y193000D01*
X352500Y106500D02*
Y113500D01*
X293000Y165500D02*
X300000D01*
X290000Y168500D02*
X293000Y165500D01*
X291500Y129000D02*
X305000D01*
X374500Y121500D02*
X393500D01*
X372500Y119500D02*
X374500Y121500D01*
X372500Y113500D02*
Y119500D01*
X272000Y219500D02*
X273000Y221000D01*
X272000Y216500D02*
Y219500D01*
X194000Y134000D02*
X203000D01*
X139500Y212500D02*
X147500D01*
X136000Y209000D02*
X139500Y212500D01*
X136000Y186000D02*
Y209000D01*
X134000Y163000D02*
X138000Y167000D01*
X167500D01*
X180000Y190500D02*
Y193000D01*
X167500Y167000D02*
X171500Y171000D01*
X223500Y136000D02*
Y141000D01*
Y136000D02*
X228500Y131000D01*
X231500D01*
X244000Y157700D02*
X253000D01*
X194500Y179500D02*
Y187500D01*
X154500Y212500D02*
X160500D01*
X166000D01*
X284500Y127000D02*
X287000D01*
X277500Y120000D02*
X279000Y121500D01*
X277500Y113500D02*
Y120000D01*
X173500Y227000D02*
X180000Y220500D01*
Y209500D02*
Y220500D01*
X427500Y147000D02*
Y150000D01*
X427000Y146500D02*
X427500Y147000D01*
X416500Y188000D02*
X421500D01*
X302500Y158500D02*
Y163000D01*
Y158500D02*
X305000Y156000D01*
X296000Y208000D02*
Y224000D01*
X300000Y165500D02*
X302500Y163000D01*
X282500Y125000D02*
X284500Y127000D01*
X279000Y121500D02*
X280500Y123000D01*
X282500Y125000D01*
X125500Y143500D02*
Y167500D01*
X343500Y237500D02*
Y241500D01*
X342500Y242500D02*
X343500Y241500D01*
X435500Y210000D02*
X437500Y209000D01*
X432500Y210000D02*
X435500D01*
X427900D02*
X432500D01*
X424200Y206300D02*
X427900Y210000D01*
X166000Y212500D02*
X169500Y216000D01*
Y223000D01*
X173500Y227000D01*
D40*
X479358Y166428D02*
X478787Y166142D01*
X478501Y165285D01*
Y164714D01*
X478787Y163857D01*
X479644Y163286D01*
X481072Y163000D01*
X482500D01*
X483643Y163286D01*
X484214Y163857D01*
X484500Y164714D01*
Y165000D01*
X484214Y165857D01*
X483643Y166428D01*
X482786Y166714D01*
X482500D01*
X481643Y166428D01*
X481072Y165857D01*
X480787Y165000D01*
Y164714D01*
X481072Y163857D01*
X481643Y163286D01*
X482500Y163000D01*
X481929Y168027D02*
Y173169D01*
X478501Y176654D02*
X478787Y175797D01*
X479644Y175226D01*
X481072Y174940D01*
X481929D01*
X483357Y175226D01*
X484214Y175797D01*
X484500Y176654D01*
Y177225D01*
X484214Y178083D01*
X483357Y178654D01*
X481929Y178939D01*
X481072D01*
X479644Y178654D01*
X478787Y178083D01*
X478501Y177225D01*
Y176654D01*
Y181996D02*
X478787Y181139D01*
X479644Y180568D01*
X481072Y180282D01*
X481929D01*
X483357Y180568D01*
X484214Y181139D01*
X484500Y181996D01*
Y182567D01*
X484214Y183424D01*
X483357Y183995D01*
X481929Y184281D01*
X481072D01*
X479644Y183995D01*
X478787Y183424D01*
X478501Y182567D01*
Y181996D01*
Y186195D02*
Y189337D01*
X480787Y187623D01*
Y188480D01*
X481072Y189051D01*
X481358Y189337D01*
X482215Y189623D01*
X482786D01*
X483643Y189337D01*
X484214Y188766D01*
X484500Y187909D01*
Y187052D01*
X484214Y186195D01*
X483929Y185909D01*
X483357Y185624D01*
X480501Y194679D02*
X481358Y194393D01*
X481929Y193822D01*
X482215Y192965D01*
Y192679D01*
X481929Y191822D01*
X481358Y191251D01*
X480501Y190965D01*
X480215D01*
X479358Y191251D01*
X478787Y191822D01*
X478501Y192679D01*
Y192965D01*
X478787Y193822D01*
X479358Y194393D01*
X480501Y194679D01*
X481929D01*
X483357Y194393D01*
X484214Y193822D01*
X484500Y192965D01*
Y192394D01*
X484214Y191537D01*
X483643Y191251D01*
D41*
X435000Y224000D02*
D03*
X459000D02*
D03*
X447000Y244000D02*
D03*
D42*
X188976Y153657D02*
D03*
D43*
X431000Y182000D02*
D03*
X438874D02*
D03*
X431000Y172158D02*
D03*
X438874Y172157D02*
D03*
X396000Y207000D02*
D03*
X386000D02*
D03*
D44*
X315000Y175000D02*
D03*
Y145000D02*
D03*
X325000Y175000D02*
D03*
Y165000D02*
D03*
Y155000D02*
D03*
X339000Y145000D02*
D03*
Y155000D02*
D03*
Y165000D02*
D03*
Y175000D02*
D03*
X349000Y165000D02*
D03*
Y175000D02*
D03*
Y155000D02*
D03*
D45*
X315000Y165000D02*
D03*
Y155000D02*
D03*
X297500Y260000D02*
D03*
D46*
X292500Y230000D02*
D03*
X152500Y132500D02*
D03*
D47*
X302500Y230000D02*
D03*
X142500Y132500D02*
D03*
D48*
X389000Y260000D02*
D03*
X402500D02*
D03*
D49*
X379000D02*
D03*
X412500D02*
D03*
X432500D02*
D03*
X442500D02*
D03*
X452500D02*
D03*
X422500D02*
D03*
D50*
X417500Y113500D02*
D03*
X447500D02*
D03*
X407500D02*
D03*
X427500D02*
D03*
X437500D02*
D03*
D51*
X397500D02*
D03*
D52*
X337500Y250000D02*
D03*
X297500D02*
D03*
X307500D02*
D03*
Y260000D02*
D03*
X347500Y250000D02*
D03*
Y260000D02*
D03*
X357500Y250000D02*
D03*
X337500Y260000D02*
D03*
X327500D02*
D03*
X317500Y250000D02*
D03*
X327500D02*
D03*
X317500Y260000D02*
D03*
D53*
X287500Y250000D02*
D03*
D54*
Y260000D02*
D03*
D55*
X357500D02*
D03*
D56*
X223500Y141000D02*
D03*
X213500D02*
D03*
X223500Y181000D02*
D03*
Y161000D02*
D03*
X213500Y151000D02*
D03*
X223500D02*
D03*
X213500Y171000D02*
D03*
X223500D02*
D03*
D57*
X213500Y181000D02*
D03*
D58*
Y161000D02*
D03*
D59*
X418500Y238500D02*
D03*
D60*
X379000Y251500D02*
D03*
D61*
X212500Y113500D02*
D03*
X202500D02*
D03*
X192500D02*
D03*
X297500D02*
D03*
X287500D02*
D03*
X277500D02*
D03*
X267500D02*
D03*
X257500D02*
D03*
X247500D02*
D03*
X237500D02*
D03*
X134000Y260000D02*
D03*
X144000D02*
D03*
X147500Y113500D02*
D03*
X157500D02*
D03*
X167500D02*
D03*
X322500D02*
D03*
X332500D02*
D03*
X342500D02*
D03*
X352500D02*
D03*
X362500D02*
D03*
X372500D02*
D03*
X382500D02*
D03*
D62*
X182500D02*
D03*
X227500D02*
D03*
X154000Y260000D02*
D03*
X137500Y113500D02*
D03*
X312500D02*
D03*
D63*
X475000Y115000D02*
D03*
Y260000D02*
D03*
X115000D02*
D03*
Y115000D02*
D03*
D64*
X473500Y216500D02*
D03*
D65*
Y231500D02*
D03*
D66*
X449543Y200780D02*
D03*
Y153378D02*
D03*
D67*
X188976Y236335D02*
D03*
D68*
X279000Y260000D02*
D03*
X292500Y247500D02*
D03*
X431500Y124500D02*
D03*
X466500Y177000D02*
D03*
X194500Y150500D02*
D03*
X431500Y206500D02*
D03*
X424200Y206300D02*
D03*
X194500Y169000D02*
D03*
X260000Y170500D02*
D03*
X245000Y236400D02*
D03*
X225000Y194500D02*
D03*
X300000Y165500D02*
D03*
X382000Y227000D02*
D03*
X224000Y199000D02*
D03*
X236500Y194000D02*
D03*
X215000Y190500D02*
D03*
X233500Y197500D02*
D03*
X181000Y173500D02*
D03*
X205500Y174000D02*
D03*
X205000Y187500D02*
D03*
X163000Y144500D02*
D03*
X244000Y157700D02*
D03*
X197177Y251323D02*
D03*
X233000Y204000D02*
D03*
X224000Y213000D02*
D03*
X204500Y179500D02*
D03*
X224700Y207200D02*
D03*
X194500Y179500D02*
D03*
Y187500D02*
D03*
X236000Y207000D02*
D03*
X240500Y196000D02*
D03*
X173500Y227000D02*
D03*
X389000Y128500D02*
D03*
Y135500D02*
D03*
X291000Y157000D02*
D03*
X383500Y201000D02*
D03*
X235000Y122500D02*
D03*
X295500Y144000D02*
D03*
X388500Y151800D02*
D03*
X439000Y154200D02*
D03*
X204787Y212713D02*
D03*
X427000Y143000D02*
D03*
X456500Y132000D02*
D03*
X453000Y136500D02*
D03*
X423000Y133500D02*
D03*
X335000Y180000D02*
D03*
X328000D02*
D03*
X361500Y203000D02*
D03*
X343500Y237500D02*
D03*
X274000Y150500D02*
D03*
X166000Y171000D02*
D03*
Y177000D02*
D03*
X163500Y188000D02*
D03*
X342500Y247500D02*
D03*
X265000Y193000D02*
D03*
X274500Y177500D02*
D03*
X279500D02*
D03*
X262000Y180000D02*
D03*
X234500Y221500D02*
D03*
X272000Y216500D02*
D03*
X223500Y220000D02*
D03*
X238500Y219500D02*
D03*
X305500Y242500D02*
D03*
X273000Y241000D02*
D03*
X211500Y244800D02*
D03*
X218500Y216500D02*
D03*
X348500Y183500D02*
D03*
X360500Y160000D02*
D03*
Y150000D02*
D03*
X258000Y151500D02*
D03*
X117500Y243000D02*
D03*
X118173Y136827D02*
D03*
X161500Y254000D02*
D03*
X244000Y221400D02*
D03*
X238000Y243600D02*
D03*
X460500Y198000D02*
D03*
X356400Y224000D02*
D03*
X364500Y254500D02*
D03*
X255000Y175000D02*
D03*
X255252Y170752D02*
D03*
X309500Y209500D02*
D03*
X311500Y215500D02*
D03*
X276500Y251000D02*
D03*
X218500Y268500D02*
D03*
X224000Y259000D02*
D03*
X414000Y125000D02*
D03*
X437500Y209000D02*
D03*
X454500Y187000D02*
D03*
X386500Y222500D02*
D03*
X272500Y263000D02*
D03*
X251000Y260500D02*
D03*
X258000D02*
D03*
X238000Y263000D02*
D03*
X356000Y217200D02*
D03*
X312000Y189000D02*
D03*
X381500Y161400D02*
D03*
X136500Y144500D02*
D03*
X172500Y203000D02*
D03*
X285000Y157000D02*
D03*
X401500Y174000D02*
D03*
X378500D02*
D03*
X376000Y235500D02*
D03*
X413500Y155500D02*
D03*
X289500Y127000D02*
D03*
X356000Y208500D02*
D03*
X363500Y222000D02*
D03*
X180500Y181500D02*
D03*
X393500Y121500D02*
D03*
X142500Y172500D02*
D03*
X421500Y188000D02*
D03*
X152500Y158500D02*
D03*
X400500Y192000D02*
D03*
X395500Y222500D02*
D03*
X278500Y203500D02*
D03*
X272000Y205000D02*
D03*
X290000Y191500D02*
D03*
X242500Y202248D02*
D03*
X337409Y202909D02*
D03*
X335000Y207000D02*
D03*
X380000Y204500D02*
D03*
Y222000D02*
D03*
X278500Y232000D02*
D03*
X317000Y234000D02*
D03*
X405000Y195700D02*
D03*
X288000Y183500D02*
D03*
X290000Y187500D02*
D03*
X272000Y168500D02*
D03*
X242000Y183500D02*
D03*
X254500Y186500D02*
D03*
X380000Y210500D02*
D03*
X356000Y175500D02*
D03*
Y165500D02*
D03*
X322000Y137500D02*
D03*
X393500Y174000D02*
D03*
X383500Y152000D02*
D03*
X194500Y239000D02*
D03*
X195000Y212500D02*
D03*
X305000Y156000D02*
D03*
X233000Y182000D02*
D03*
X237500Y183500D02*
D03*
X228000Y122500D02*
D03*
X269000Y150000D02*
D03*
X280000Y244000D02*
D03*
X285500Y235000D02*
D03*
X316000Y238000D02*
D03*
X272000Y247000D02*
D03*
X156000Y233000D02*
D03*
X351917Y196500D02*
D03*
X334000Y198000D02*
D03*
X209370Y266000D02*
D03*
X324500Y188500D02*
D03*
X307000Y185500D02*
D03*
X167500Y167000D02*
D03*
X175500Y197000D02*
D03*
X320400Y237500D02*
D03*
X339000D02*
D03*
X348000Y235500D02*
D03*
X136000Y186000D02*
D03*
X180000Y190500D02*
D03*
Y209500D02*
D03*
X134000Y163000D02*
D03*
X269000Y132000D02*
D03*
X125500Y143500D02*
D03*
X418500Y137000D02*
D03*
X408500Y176000D02*
D03*
X419000Y162000D02*
D03*
X408500Y138000D02*
D03*
X305000Y129000D02*
D03*
X265701Y155701D02*
D03*
X407000Y155500D02*
D03*
X427500Y150000D02*
D03*
X396000Y139000D02*
D03*
X253000Y157700D02*
D03*
X296000Y208000D02*
D03*
X202500Y145500D02*
D03*
X229500Y168000D02*
D03*
X395000Y250000D02*
D03*
X180500Y236500D02*
D03*
X177000Y238500D02*
D03*
X173000D02*
D03*
X161500Y261000D02*
D03*
X186500Y252500D02*
D03*
X200323Y266677D02*
D03*
X262500Y204500D02*
D03*
X258000D02*
D03*
X226000Y268500D02*
D03*
X221000Y232000D02*
D03*
X228500Y233400D02*
D03*
X226500Y225500D02*
D03*
X209000Y228500D02*
D03*
X310500Y226500D02*
D03*
X291000Y222500D02*
D03*
X311500Y220000D02*
D03*
X234500Y236500D02*
D03*
X230500Y224000D02*
D03*
X225500Y229500D02*
D03*
Y241800D02*
D03*
X200500Y260500D02*
D03*
X161500Y265000D02*
D03*
X166800Y247500D02*
D03*
X302000Y186500D02*
D03*
X134000Y154500D02*
D03*
X198500Y128000D02*
D03*
X194000Y134000D02*
D03*
X203000D02*
D03*
X166500Y137500D02*
D03*
X179500Y137000D02*
D03*
X164000Y160500D02*
D03*
X207000Y131000D02*
D03*
X231500D02*
D03*
X176000Y261500D02*
D03*
X173000Y249500D02*
D03*
X179000D02*
D03*
X276000Y219500D02*
D03*
D69*
X166000Y212500D02*
D03*
X263000Y216500D02*
D03*
X205500Y225500D02*
D03*
M02*
