%FSLAX25Y25*%
%MOIN*%
G70*
G01*
G75*
%ADD10C,0.00700*%
%ADD11C,0.06000*%
%ADD12O,0.04000X0.02700*%
%ADD13R,0.07874X0.06299*%
%ADD14R,0.06500X0.05500*%
%ADD15R,0.05000X0.05000*%
%ADD16R,0.05500X0.06500*%
%ADD17R,0.04000X0.02700*%
%ADD18O,0.07000X0.10000*%
%ADD19O,0.07000X0.09000*%
%ADD20O,0.02400X0.08000*%
%ADD21R,0.02400X0.08000*%
%ADD22R,0.03600X0.03600*%
%ADD23R,0.05000X0.03600*%
%ADD24R,0.07000X0.01500*%
%ADD25O,0.07000X0.01500*%
%ADD26O,0.07480X0.01969*%
%ADD27O,0.01969X0.07480*%
%ADD28O,0.01969X0.07000*%
%ADD29R,0.01969X0.07480*%
%ADD30O,0.05118X0.01500*%
%ADD31O,0.05118X0.01500*%
%ADD32R,0.05118X0.01500*%
%ADD33R,0.05000X0.03000*%
%ADD34R,0.05906X0.02756*%
%ADD35R,0.11024X0.05906*%
%ADD36R,0.05906X0.03937*%
%ADD37R,0.05906X0.03937*%
%ADD38C,0.01000*%
%ADD39C,0.02000*%
%ADD40C,0.00600*%
%ADD41O,0.10000X0.12000*%
%ADD42C,0.06300*%
%ADD43C,0.06200*%
%ADD44O,0.06500X0.05500*%
%ADD45O,0.06500X0.05000*%
%ADD46O,0.05500X0.06400*%
%ADD47R,0.05500X0.06400*%
%ADD48R,0.06200X0.07200*%
%ADD49O,0.06200X0.07200*%
%ADD50O,0.06000X0.07000*%
%ADD51R,0.06000X0.07000*%
%ADD52O,0.05500X0.06800*%
%ADD53O,0.06400X0.05000*%
%ADD54O,0.06800X0.05000*%
%ADD55R,0.05500X0.06800*%
%ADD56O,0.06800X0.05500*%
%ADD57R,0.06800X0.05500*%
%ADD58O,0.06400X0.05500*%
%ADD59R,0.06000X0.06000*%
%ADD60O,0.08000X0.06000*%
%ADD61O,0.06000X0.07400*%
%ADD62R,0.06000X0.07400*%
%ADD63C,0.23500*%
%ADD64R,0.10000X0.08000*%
%ADD65O,0.10000X0.08000*%
%ADD66C,0.12000*%
%ADD67C,0.04400*%
%ADD68C,0.03200*%
%ADD69C,0.03000*%
%ADD70O,0.02700X0.04000*%
%ADD71O,0.02400X0.07500*%
%ADD72R,0.05000X0.07000*%
%ADD73O,0.02700X0.03500*%
%ADD74R,0.02700X0.04000*%
%ADD75R,0.03600X0.05000*%
%ADD76O,0.03600X0.02700*%
%ADD77O,0.01500X0.05118*%
%ADD78O,0.01500X0.05118*%
%ADD79R,0.01500X0.05118*%
%ADD80O,0.08000X0.02400*%
%ADD81R,0.08000X0.02400*%
%ADD82O,0.05500X0.01600*%
%ADD83R,0.05500X0.01600*%
%ADD84R,0.06000X0.12500*%
%ADD85R,0.09843X0.09843*%
%ADD86R,0.15000X0.10000*%
%ADD87R,0.12500X0.06000*%
%ADD88R,0.08500X0.10800*%
%ADD89R,0.06000X0.10000*%
%ADD90C,0.00800*%
%ADD91C,0.00500*%
%ADD92C,0.00400*%
%ADD93C,0.02200*%
%ADD94C,0.01200*%
%ADD95C,0.03000*%
%ADD96C,0.05000*%
%ADD97C,0.00394*%
%ADD98R,0.22835X0.81937*%
%ADD99R,0.02953X0.04134*%
%ADD100R,0.02953X0.04134*%
%ADD101R,0.03000X0.02800*%
%ADD102R,0.02800X0.03000*%
%ADD103R,0.70000X0.06700*%
%ADD104R,0.01575X0.01575*%
%ADD105R,0.02500X0.02500*%
%ADD106R,0.30000X0.07000*%
%ADD107R,0.20000X0.07000*%
%ADD108R,0.50000X0.06500*%
%ADD109R,0.05200X0.10400*%
%ADD110R,0.05000X0.10400*%
%ADD111R,0.01575X0.01575*%
%ADD112R,0.46500X0.07000*%
%ADD113R,1.08500X0.07000*%
%ADD114C,0.06800*%
%ADD115O,0.04800X0.03500*%
%ADD116R,0.08674X0.07099*%
%ADD117R,0.07300X0.06300*%
%ADD118R,0.05800X0.05800*%
%ADD119R,0.06300X0.07300*%
%ADD120R,0.04800X0.03500*%
%ADD121O,0.07800X0.10800*%
%ADD122O,0.07800X0.09800*%
%ADD123O,0.03200X0.08800*%
%ADD124R,0.03200X0.08800*%
%ADD125R,0.04400X0.04400*%
%ADD126R,0.05800X0.04400*%
%ADD127R,0.07800X0.02300*%
%ADD128O,0.07800X0.02300*%
%ADD129O,0.08280X0.02768*%
%ADD130O,0.02768X0.08280*%
%ADD131O,0.02768X0.07800*%
%ADD132R,0.02768X0.08280*%
%ADD133O,0.05918X0.02300*%
%ADD134O,0.05918X0.02300*%
%ADD135R,0.05918X0.02300*%
%ADD136R,0.05800X0.03800*%
%ADD137R,0.06706X0.03556*%
%ADD138R,0.11824X0.06706*%
%ADD139R,0.06706X0.04737*%
%ADD140R,0.06706X0.04737*%
%ADD141O,0.10800X0.12800*%
%ADD142C,0.07100*%
%ADD143C,0.07000*%
%ADD144O,0.07300X0.06300*%
%ADD145O,0.07300X0.05800*%
%ADD146O,0.06300X0.07200*%
%ADD147R,0.06300X0.07200*%
%ADD148R,0.07000X0.08000*%
%ADD149O,0.07000X0.08000*%
%ADD150O,0.06800X0.07800*%
%ADD151R,0.06800X0.07800*%
%ADD152O,0.06300X0.07600*%
%ADD153O,0.07200X0.05800*%
%ADD154O,0.07600X0.05800*%
%ADD155R,0.06300X0.07600*%
%ADD156O,0.07600X0.06300*%
%ADD157R,0.07600X0.06300*%
%ADD158O,0.07200X0.06300*%
%ADD159R,0.06800X0.06800*%
%ADD160O,0.08800X0.06800*%
%ADD161O,0.06800X0.08200*%
%ADD162R,0.06800X0.08200*%
%ADD163C,0.24300*%
%ADD164R,0.10800X0.08800*%
%ADD165O,0.10800X0.08800*%
%ADD166C,0.12800*%
%ADD167C,0.05200*%
%ADD168C,0.04000*%
D38*
X475000Y100000D02*
X475981Y100032D01*
X476958Y100128D01*
X477926Y100288D01*
X478882Y100511D01*
X479822Y100796D01*
X480740Y101142D01*
X481634Y101547D01*
X482500Y102010D01*
X483334Y102528D01*
X484131Y103100D01*
X484890Y103722D01*
X485607Y104393D01*
X486278Y105110D01*
X486900Y105869D01*
X487472Y106667D01*
X487990Y107500D01*
X488453Y108366D01*
X488858Y109260D01*
X489204Y110178D01*
X489489Y111118D01*
X489712Y112074D01*
X489872Y113042D01*
X489968Y114019D01*
X490000Y115000D01*
Y260000D02*
X489968Y260981D01*
X489872Y261958D01*
X489712Y262926D01*
X489489Y263882D01*
X489204Y264822D01*
X488858Y265740D01*
X488453Y266634D01*
X487990Y267500D01*
X487472Y268334D01*
X486900Y269131D01*
X486278Y269890D01*
X485607Y270607D01*
X484890Y271278D01*
X484131Y271900D01*
X483334Y272472D01*
X482500Y272990D01*
X481634Y273453D01*
X480740Y273858D01*
X479822Y274204D01*
X478882Y274489D01*
X477926Y274712D01*
X476958Y274872D01*
X475981Y274968D01*
X475000Y275000D01*
X115000D02*
X114019Y274968D01*
X113042Y274872D01*
X112074Y274712D01*
X111118Y274489D01*
X110178Y274204D01*
X109260Y273858D01*
X108366Y273453D01*
X107500Y272990D01*
X106667Y272472D01*
X105869Y271900D01*
X105110Y271278D01*
X104393Y270607D01*
X103722Y269890D01*
X103100Y269131D01*
X102528Y268334D01*
X102010Y267500D01*
X101547Y266634D01*
X101142Y265740D01*
X100796Y264822D01*
X100511Y263882D01*
X100288Y262926D01*
X100128Y261958D01*
X100032Y260981D01*
X100000Y260000D01*
Y115000D02*
X100032Y114019D01*
X100128Y113042D01*
X100288Y112074D01*
X100511Y111118D01*
X100796Y110178D01*
X101142Y109260D01*
X101547Y108366D01*
X102010Y107500D01*
X102528Y106667D01*
X103100Y105869D01*
X103722Y105110D01*
X104393Y104393D01*
X105110Y103722D01*
X105869Y103100D01*
X106667Y102528D01*
X107500Y102010D01*
X108366Y101547D01*
X109260Y101142D01*
X110178Y100796D01*
X111118Y100511D01*
X112074Y100288D01*
X113042Y100128D01*
X114019Y100032D01*
X115000Y100000D01*
Y275000D02*
X475000D01*
X100000Y115000D02*
Y260000D01*
X115000Y100000D02*
X475000D01*
X489900Y114300D02*
X490000Y260000D01*
D114*
X207000Y193000D02*
D03*
X411500Y208500D02*
D03*
X368000Y242500D02*
D03*
X422000Y182000D02*
D03*
D115*
X419000Y195700D02*
D03*
X219000Y211500D02*
D03*
Y204000D02*
D03*
X229000Y207700D02*
D03*
Y204000D02*
D03*
Y211500D02*
D03*
X409000Y195700D02*
D03*
X419000Y192000D02*
D03*
Y199500D02*
D03*
X409000Y192000D02*
D03*
X229000Y198000D02*
D03*
Y190500D02*
D03*
Y194200D02*
D03*
X219000Y190500D02*
D03*
Y198000D02*
D03*
D116*
X265630Y260500D02*
D03*
X244370D02*
D03*
X230630D02*
D03*
X209370D02*
D03*
D117*
X366500Y155500D02*
D03*
Y169000D02*
D03*
X325000Y145000D02*
D03*
X349000D02*
D03*
D118*
X444000Y142500D02*
D03*
X435000D02*
D03*
X400500Y248500D02*
D03*
Y239500D02*
D03*
X410500D02*
D03*
X317000Y206500D02*
D03*
X431500Y248500D02*
D03*
X422500D02*
D03*
X410500D02*
D03*
X405500Y218000D02*
D03*
Y227500D02*
D03*
X326000Y206500D02*
D03*
X279000Y145500D02*
D03*
X273000Y235500D02*
D03*
X264000D02*
D03*
X395500Y227500D02*
D03*
X386500D02*
D03*
X269000Y145500D02*
D03*
Y136500D02*
D03*
X211000Y202000D02*
D03*
Y211000D02*
D03*
X264000Y225000D02*
D03*
X273000D02*
D03*
X336000Y220500D02*
D03*
Y211500D02*
D03*
X414500Y218000D02*
D03*
Y227500D02*
D03*
X279000Y136500D02*
D03*
X389500Y248500D02*
D03*
Y239500D02*
D03*
X326500Y229500D02*
D03*
Y220500D02*
D03*
X317000Y229500D02*
D03*
Y220500D02*
D03*
X361000Y182000D02*
D03*
X370000D02*
D03*
D119*
X475500Y145500D02*
D03*
X462000D02*
D03*
X475500Y134500D02*
D03*
X462000D02*
D03*
D120*
X409000Y199500D02*
D03*
D121*
X252504Y222500D02*
D03*
X252504Y238374D02*
D03*
X215496Y238500D02*
D03*
D122*
X215496Y222500D02*
D03*
D123*
X408500Y144000D02*
D03*
X413500D02*
D03*
X408500Y182000D02*
D03*
X403500Y144000D02*
D03*
X398500D02*
D03*
X393500D02*
D03*
X388500D02*
D03*
X383500D02*
D03*
X378500D02*
D03*
Y182000D02*
D03*
X383500D02*
D03*
X388500D02*
D03*
X393500D02*
D03*
X398500D02*
D03*
X403500D02*
D03*
D124*
X413500D02*
D03*
D125*
X316500Y189000D02*
D03*
Y196500D02*
D03*
D126*
X324500Y192700D02*
D03*
D127*
X345500Y228500D02*
D03*
D128*
Y218264D02*
D03*
X373059Y213146D02*
D03*
Y215705D02*
D03*
X373059Y228500D02*
D03*
X373059Y225941D02*
D03*
Y223382D02*
D03*
Y220823D02*
D03*
Y218264D02*
D03*
Y210587D02*
D03*
Y208028D02*
D03*
Y205469D02*
D03*
Y202909D02*
D03*
Y197791D02*
D03*
Y195232D02*
D03*
X345500D02*
D03*
Y197791D02*
D03*
Y200350D02*
D03*
Y205469D02*
D03*
Y208028D02*
D03*
Y210587D02*
D03*
Y213146D02*
D03*
Y215705D02*
D03*
Y220823D02*
D03*
Y223382D02*
D03*
Y225941D02*
D03*
Y202909D02*
D03*
X373059Y200350D02*
D03*
D129*
X296016Y199098D02*
D03*
Y189650D02*
D03*
Y192799D02*
D03*
Y173902D02*
D03*
X247984Y202248D02*
D03*
Y199098D02*
D03*
Y195949D02*
D03*
Y192799D02*
D03*
Y189650D02*
D03*
Y186500D02*
D03*
Y183350D02*
D03*
X296016Y170752D02*
D03*
Y177051D02*
D03*
Y180201D02*
D03*
Y183350D02*
D03*
Y186500D02*
D03*
Y202248D02*
D03*
X247984Y180201D02*
D03*
Y177051D02*
D03*
X296016Y195949D02*
D03*
X247984Y173902D02*
D03*
Y170752D02*
D03*
D130*
X259402Y210516D02*
D03*
X275150Y162484D02*
D03*
X259402D02*
D03*
X262551D02*
D03*
X284598Y210516D02*
D03*
X281449D02*
D03*
X278299D02*
D03*
X275150D02*
D03*
X272000D02*
D03*
X268850D02*
D03*
X265701D02*
D03*
X256252D02*
D03*
X268850Y162484D02*
D03*
X272000D02*
D03*
X281449D02*
D03*
X284598D02*
D03*
X287748D02*
D03*
X265701D02*
D03*
X278299D02*
D03*
X256252D02*
D03*
D131*
X262551Y210516D02*
D03*
D132*
X287748Y210516D02*
D03*
D133*
X166902Y264118D02*
D03*
D134*
Y261559D02*
D03*
Y259000D02*
D03*
Y256441D02*
D03*
Y253882D02*
D03*
Y251323D02*
D03*
X192098Y253882D02*
D03*
Y256441D02*
D03*
Y259000D02*
D03*
Y261559D02*
D03*
Y264118D02*
D03*
Y266677D02*
D03*
Y251323D02*
D03*
D135*
X166902Y266677D02*
D03*
D136*
X257500Y135063D02*
D03*
Y139000D02*
D03*
Y142937D02*
D03*
D137*
X200000Y238795D02*
D03*
Y234071D02*
D03*
D138*
X194488Y145488D02*
D03*
Y244307D02*
D03*
X109843D02*
D03*
Y136827D02*
D03*
D139*
X200000Y228953D02*
D03*
Y212713D02*
D03*
Y222260D02*
D03*
Y202870D02*
D03*
Y193028D02*
D03*
Y183185D02*
D03*
Y173343D02*
D03*
D140*
Y153657D02*
D03*
Y163500D02*
D03*
D141*
X435000Y224000D02*
D03*
X459000D02*
D03*
X447000Y244000D02*
D03*
D142*
X188976Y153657D02*
D03*
D143*
X431000Y182000D02*
D03*
X438874D02*
D03*
X431000Y172158D02*
D03*
X438874Y172157D02*
D03*
X396000Y207000D02*
D03*
X386000D02*
D03*
D144*
X315000Y175000D02*
D03*
Y145000D02*
D03*
X325000Y175000D02*
D03*
Y165000D02*
D03*
Y155000D02*
D03*
X339000Y145000D02*
D03*
Y155000D02*
D03*
Y165000D02*
D03*
Y175000D02*
D03*
X349000Y165000D02*
D03*
Y175000D02*
D03*
Y155000D02*
D03*
D145*
X315000Y165000D02*
D03*
Y155000D02*
D03*
X297500Y260000D02*
D03*
D146*
X292500Y230000D02*
D03*
X152500Y132500D02*
D03*
D147*
X302500Y230000D02*
D03*
X142500Y132500D02*
D03*
D148*
X389000Y260000D02*
D03*
X402500D02*
D03*
D149*
X379000D02*
D03*
X412500D02*
D03*
X432500D02*
D03*
X442500D02*
D03*
X452500D02*
D03*
X422500D02*
D03*
D150*
X417500Y113500D02*
D03*
X447500D02*
D03*
X407500D02*
D03*
X427500D02*
D03*
X437500D02*
D03*
D151*
X397500D02*
D03*
D152*
X337500Y250000D02*
D03*
X297500D02*
D03*
X307500D02*
D03*
Y260000D02*
D03*
X347500Y250000D02*
D03*
Y260000D02*
D03*
X357500Y250000D02*
D03*
X337500Y260000D02*
D03*
X327500D02*
D03*
X317500Y250000D02*
D03*
X327500D02*
D03*
X317500Y260000D02*
D03*
D153*
X287500Y250000D02*
D03*
D154*
Y260000D02*
D03*
D155*
X357500D02*
D03*
D156*
X223500Y141000D02*
D03*
X213500D02*
D03*
X223500Y181000D02*
D03*
Y161000D02*
D03*
X213500Y151000D02*
D03*
X223500D02*
D03*
X213500Y171000D02*
D03*
X223500D02*
D03*
D157*
X213500Y181000D02*
D03*
D158*
Y161000D02*
D03*
D159*
X418500Y238500D02*
D03*
D160*
X379000Y251500D02*
D03*
D161*
X212500Y113500D02*
D03*
X202500D02*
D03*
X192500D02*
D03*
X297500D02*
D03*
X287500D02*
D03*
X277500D02*
D03*
X267500D02*
D03*
X257500D02*
D03*
X247500D02*
D03*
X237500D02*
D03*
X134000Y260000D02*
D03*
X144000D02*
D03*
X147500Y113500D02*
D03*
X157500D02*
D03*
X167500D02*
D03*
X322500D02*
D03*
X332500D02*
D03*
X342500D02*
D03*
X352500D02*
D03*
X362500D02*
D03*
X372500D02*
D03*
X382500D02*
D03*
D162*
X182500D02*
D03*
X227500D02*
D03*
X154000Y260000D02*
D03*
X137500Y113500D02*
D03*
X312500D02*
D03*
D163*
X475000Y115000D02*
D03*
Y260000D02*
D03*
X115000D02*
D03*
Y115000D02*
D03*
D164*
X473500Y216500D02*
D03*
D165*
Y231500D02*
D03*
D166*
X449543Y200780D02*
D03*
Y153378D02*
D03*
D167*
X188976Y236335D02*
D03*
D168*
X279000Y260000D02*
D03*
X292500Y247500D02*
D03*
X431500Y124500D02*
D03*
X466500Y177000D02*
D03*
M02*
