%FSLAX25Y25*%
%MOIN*%
G70*
G01*
G75*
%ADD10C,0.00700*%
%ADD11C,0.06000*%
%ADD12O,0.04000X0.02700*%
%ADD13R,0.07874X0.06299*%
%ADD14R,0.06500X0.05500*%
%ADD15R,0.05000X0.05000*%
%ADD16R,0.05500X0.06500*%
%ADD17R,0.04000X0.02700*%
%ADD18O,0.07000X0.10000*%
%ADD19O,0.07000X0.09000*%
%ADD20O,0.02400X0.08000*%
%ADD21R,0.02400X0.08000*%
%ADD22R,0.03600X0.03600*%
%ADD23R,0.05000X0.03600*%
%ADD24R,0.07000X0.01500*%
%ADD25O,0.07000X0.01500*%
%ADD26O,0.07480X0.01969*%
%ADD27O,0.01969X0.07480*%
%ADD28O,0.01969X0.07000*%
%ADD29R,0.01969X0.07480*%
%ADD30O,0.05118X0.01500*%
%ADD31O,0.05118X0.01500*%
%ADD32R,0.05118X0.01500*%
%ADD33R,0.05000X0.03000*%
%ADD34R,0.05906X0.02756*%
%ADD35R,0.11024X0.05906*%
%ADD36R,0.05906X0.03937*%
%ADD37R,0.05906X0.03937*%
%ADD38C,0.01000*%
%ADD39C,0.02000*%
%ADD40C,0.00600*%
%ADD41O,0.10000X0.12000*%
%ADD42C,0.06300*%
%ADD43C,0.06200*%
%ADD44O,0.06500X0.05500*%
%ADD45O,0.06500X0.05000*%
%ADD46O,0.05500X0.06400*%
%ADD47R,0.05500X0.06400*%
%ADD48R,0.06200X0.07200*%
%ADD49O,0.06200X0.07200*%
%ADD50O,0.06000X0.07000*%
%ADD51R,0.06000X0.07000*%
%ADD52O,0.05500X0.06800*%
%ADD53O,0.06400X0.05000*%
%ADD54O,0.06800X0.05000*%
%ADD55R,0.05500X0.06800*%
%ADD56O,0.06800X0.05500*%
%ADD57R,0.06800X0.05500*%
%ADD58O,0.06400X0.05500*%
%ADD59R,0.06000X0.06000*%
%ADD60O,0.08000X0.06000*%
%ADD61O,0.06000X0.07400*%
%ADD62R,0.06000X0.07400*%
%ADD63C,0.23500*%
%ADD64R,0.10000X0.08000*%
%ADD65O,0.10000X0.08000*%
%ADD66C,0.12000*%
%ADD67C,0.04400*%
%ADD68C,0.03200*%
%ADD69C,0.03000*%
%ADD70O,0.02700X0.04000*%
%ADD71O,0.02400X0.07500*%
%ADD72R,0.05000X0.07000*%
%ADD73O,0.02700X0.03500*%
%ADD74R,0.02700X0.04000*%
%ADD75R,0.03600X0.05000*%
%ADD76O,0.03600X0.02700*%
%ADD77O,0.01500X0.05118*%
%ADD78O,0.01500X0.05118*%
%ADD79R,0.01500X0.05118*%
%ADD80O,0.08000X0.02400*%
%ADD81R,0.08000X0.02400*%
%ADD82O,0.05500X0.01600*%
%ADD83R,0.05500X0.01600*%
%ADD84R,0.06000X0.12500*%
%ADD85R,0.09843X0.09843*%
%ADD86R,0.15000X0.10000*%
%ADD87R,0.12500X0.06000*%
%ADD88R,0.08500X0.10800*%
%ADD89R,0.06000X0.10000*%
%ADD90C,0.00800*%
%ADD91C,0.00500*%
%ADD92C,0.00400*%
%ADD93C,0.02200*%
%ADD94C,0.01200*%
%ADD95C,0.03000*%
%ADD96C,0.05000*%
%ADD97C,0.00394*%
%ADD98R,0.22835X0.81937*%
%ADD99R,0.02953X0.04134*%
%ADD100R,0.02953X0.04134*%
%ADD101R,0.03000X0.02800*%
%ADD102R,0.02800X0.03000*%
%ADD103R,0.70000X0.06700*%
%ADD104R,0.01575X0.01575*%
%ADD105R,0.02500X0.02500*%
%ADD106R,0.30000X0.07000*%
%ADD107R,0.20000X0.07000*%
%ADD108R,0.50000X0.06500*%
%ADD109R,0.05200X0.10400*%
%ADD110R,0.05000X0.10400*%
%ADD111R,0.01575X0.01575*%
%ADD112R,0.46500X0.07000*%
%ADD113R,1.08500X0.07000*%
%ADD114C,0.06800*%
%ADD115O,0.04800X0.03500*%
%ADD116R,0.08674X0.07099*%
%ADD117R,0.07300X0.06300*%
%ADD118R,0.05800X0.05800*%
%ADD119R,0.06300X0.07300*%
%ADD120R,0.04800X0.03500*%
%ADD121O,0.07800X0.10800*%
%ADD122O,0.07800X0.09800*%
%ADD123O,0.03200X0.08800*%
%ADD124R,0.03200X0.08800*%
%ADD125R,0.04400X0.04400*%
%ADD126R,0.05800X0.04400*%
%ADD127R,0.07800X0.02300*%
%ADD128O,0.07800X0.02300*%
%ADD129O,0.08280X0.02768*%
%ADD130O,0.02768X0.08280*%
%ADD131O,0.02768X0.07800*%
%ADD132R,0.02768X0.08280*%
%ADD133O,0.05918X0.02300*%
%ADD134O,0.05918X0.02300*%
%ADD135R,0.05918X0.02300*%
%ADD136R,0.05800X0.03800*%
%ADD137R,0.06706X0.03556*%
%ADD138R,0.11824X0.06706*%
%ADD139R,0.06706X0.04737*%
%ADD140R,0.06706X0.04737*%
%ADD141O,0.10800X0.12800*%
%ADD142C,0.07100*%
%ADD143C,0.07000*%
%ADD144O,0.07300X0.06300*%
%ADD145O,0.07300X0.05800*%
%ADD146O,0.06300X0.07200*%
%ADD147R,0.06300X0.07200*%
%ADD148R,0.07000X0.08000*%
%ADD149O,0.07000X0.08000*%
%ADD150O,0.06800X0.07800*%
%ADD151R,0.06800X0.07800*%
%ADD152O,0.06300X0.07600*%
%ADD153O,0.07200X0.05800*%
%ADD154O,0.07600X0.05800*%
%ADD155R,0.06300X0.07600*%
%ADD156O,0.07600X0.06300*%
%ADD157R,0.07600X0.06300*%
%ADD158O,0.07200X0.06300*%
%ADD159R,0.06800X0.06800*%
%ADD160O,0.08800X0.06800*%
%ADD161O,0.06800X0.08200*%
%ADD162R,0.06800X0.08200*%
%ADD163C,0.24300*%
%ADD164R,0.10800X0.08800*%
%ADD165O,0.10800X0.08800*%
%ADD166C,0.12800*%
%ADD167C,0.05200*%
%ADD168C,0.04000*%
%ADD169O,0.03500X0.04800*%
%ADD170O,0.03200X0.08300*%
%ADD171R,0.05800X0.07800*%
%ADD172O,0.03500X0.04300*%
%ADD173R,0.03500X0.04800*%
%ADD174R,0.04400X0.05800*%
%ADD175O,0.04400X0.03500*%
%ADD176O,0.02300X0.05918*%
%ADD177O,0.02300X0.05918*%
%ADD178R,0.02300X0.05918*%
%ADD179O,0.08800X0.03200*%
%ADD180R,0.08800X0.03200*%
%ADD181O,0.06300X0.02400*%
%ADD182R,0.06300X0.02400*%
%ADD183R,0.06800X0.13300*%
%ADD184R,0.10643X0.10643*%
%ADD185R,0.15800X0.10800*%
%ADD186R,0.13300X0.06800*%
%ADD187R,0.09300X0.11600*%
%ADD188R,0.06800X0.10800*%
D38*
X475000Y100000D02*
X475981Y100032D01*
X476958Y100128D01*
X477926Y100288D01*
X478882Y100511D01*
X479822Y100796D01*
X480740Y101142D01*
X481634Y101547D01*
X482500Y102010D01*
X483334Y102528D01*
X484131Y103100D01*
X484890Y103722D01*
X485607Y104393D01*
X486278Y105110D01*
X486900Y105869D01*
X487472Y106667D01*
X487990Y107500D01*
X488453Y108366D01*
X488858Y109260D01*
X489204Y110178D01*
X489489Y111118D01*
X489712Y112074D01*
X489872Y113042D01*
X489968Y114019D01*
X490000Y115000D01*
Y260000D02*
X489968Y260981D01*
X489872Y261958D01*
X489712Y262926D01*
X489489Y263882D01*
X489204Y264822D01*
X488858Y265740D01*
X488453Y266634D01*
X487990Y267500D01*
X487472Y268334D01*
X486900Y269131D01*
X486278Y269890D01*
X485607Y270607D01*
X484890Y271278D01*
X484131Y271900D01*
X483334Y272472D01*
X482500Y272990D01*
X481634Y273453D01*
X480740Y273858D01*
X479822Y274204D01*
X478882Y274489D01*
X477926Y274712D01*
X476958Y274872D01*
X475981Y274968D01*
X475000Y275000D01*
X115000D02*
X114019Y274968D01*
X113042Y274872D01*
X112074Y274712D01*
X111118Y274489D01*
X110178Y274204D01*
X109260Y273858D01*
X108366Y273453D01*
X107500Y272990D01*
X106667Y272472D01*
X105869Y271900D01*
X105110Y271278D01*
X104393Y270607D01*
X103722Y269890D01*
X103100Y269131D01*
X102528Y268334D01*
X102010Y267500D01*
X101547Y266634D01*
X101142Y265740D01*
X100796Y264822D01*
X100511Y263882D01*
X100288Y262926D01*
X100128Y261958D01*
X100032Y260981D01*
X100000Y260000D01*
Y115000D02*
X100032Y114019D01*
X100128Y113042D01*
X100288Y112074D01*
X100511Y111118D01*
X100796Y110178D01*
X101142Y109260D01*
X101547Y108366D01*
X102010Y107500D01*
X102528Y106667D01*
X103100Y105869D01*
X103722Y105110D01*
X104393Y104393D01*
X105110Y103722D01*
X105869Y103100D01*
X106667Y102528D01*
X107500Y102010D01*
X108366Y101547D01*
X109260Y101142D01*
X110178Y100796D01*
X111118Y100511D01*
X112074Y100288D01*
X113042Y100128D01*
X114019Y100032D01*
X115000Y100000D01*
Y275000D02*
X475000D01*
X100000Y115000D02*
Y260000D01*
X115000Y100000D02*
X475000D01*
X489900Y114300D02*
X490000Y260000D01*
M02*
